<?xml version="1.0" encoding="UTF-8" standalone="no"?>
<!-- Created with Inkscape (http://www.inkscape.org/) -->

<svg
   xmlns:dc="http://purl.org/dc/elements/1.1/"
   xmlns:cc="http://creativecommons.org/ns#"
   xmlns:rdf="http://www.w3.org/1999/02/22-rdf-syntax-ns#"
   xmlns:svg="http://www.w3.org/2000/svg"
   xmlns="http://www.w3.org/2000/svg"
   xmlns:sodipodi="http://sodipodi.sourceforge.net/DTD/sodipodi-0.dtd"
   xmlns:inkscape="http://www.inkscape.org/namespaces/inkscape"
   width="70"
   height="25"
   id="svg2"
   sodipodi:version="0.32"
   inkscape:version="0.48.4 r9939"
   sodipodi:modified="true"
   version="1.1"
   sodipodi:docname="shifter_human.svg">
  <defs
     id="defs4">
    <inkscape:perspective
       id="perspective9"
       inkscape:persp3d-origin="50 : 54.666667 : 1"
       inkscape:vp_z="100 : 82 : 1"
       inkscape:vp_y="0 : 1000 : 0"
       inkscape:vp_x="0 : 82 : 1"
       sodipodi:type="inkscape:persp3d" />
  </defs>
  <sodipodi:namedview
     id="base"
     pagecolor="#ffffff"
     bordercolor="#666666"
     borderopacity="1.0"
     gridtolerance="10000"
     guidetolerance="10"
     objecttolerance="10"
     inkscape:pageopacity="0.0"
     inkscape:pageshadow="2"
     inkscape:zoom="0.98489872"
     inkscape:cx="9.5246845"
     inkscape:cy="-43.903467"
     inkscape:document-units="px"
     inkscape:current-layer="layer1"
     inkscape:window-width="1618"
     inkscape:window-height="1030"
     inkscape:window-x="60"
     inkscape:window-y="-3"
     showgrid="false"
     fit-margin-top="5"
     fit-margin-left="5"
     fit-margin-right="5"
     fit-margin-bottom="5"
     showguides="false"
     inkscape:guide-bbox="true"
     inkscape:window-maximized="1">
    <sodipodi:guide
       orientation="0,1"
       position="-2.6025641,12.384616"
       id="guide3038" />
    <sodipodi:guide
       orientation="1,0"
       position="17.5,27.820513"
       id="guide3042" />
    <sodipodi:guide
       orientation="1,0"
       position="52.500001,30.512821"
       id="guide3044" />
  </sodipodi:namedview>
  <metadata
     id="metadata7">
    <rdf:RDF>
      <cc:Work
         rdf:about="">
        <dc:format>image/svg+xml</dc:format>
        <dc:type
           rdf:resource="http://purl.org/dc/dcmitype/StillImage" />
        <dc:title />
      </cc:Work>
    </rdf:RDF>
  </metadata>
  <g
     inkscape:label="Layer 1"
     inkscape:groupmode="layer"
     id="layer1"
     transform="translate(-359.16152,-526.41697)">
    <rect
       style="fill:#000000;fill-opacity:1;stroke:#000000;stroke-width:3.45537663;stroke-linecap:butt;stroke-linejoin:round;stroke-miterlimit:4;stroke-opacity:1;stroke-dasharray:none;stroke-dashoffset:0"
       id="rect3065"
       width="31.544624"
       height="21.544624"
       x="360.88922"
       y="528.14465" />
    <path
       style="fill:#ffffff;fill-opacity:1"
       d="m 375.2735,549.17539 c -0.32397,-0.1063 -0.58055,-0.3454 -0.65384,-0.60931 -0.0292,-0.10516 -0.0431,-2.25649 -0.0433,-6.68998 l -2e-4,-6.53497 -0.16415,0 -0.16414,0 0,2.46683 c 0,2.41827 -0.002,2.46976 -0.0849,2.61604 -0.10774,0.18946 -0.22873,0.27824 -0.46552,0.34157 -0.35008,0.0936 -0.73294,-0.0851 -0.87042,-0.40648 -0.0885,-0.20674 -0.0827,-5.72085 0.006,-6.06267 0.20068,-0.77049 0.85059,-1.40171 1.60856,-1.56233 0.39928,-0.0846 4.09089,-0.0856 4.489,-0.001 0.4055,0.0859 0.7538,0.28038 1.06198,0.59281 0.317,0.32138 0.46497,0.58207 0.57534,1.01363 0.0769,0.3008 0.0812,0.46189 0.0812,3.08207 0,2.39512 -0.008,2.78487 -0.0631,2.91574 -0.085,0.20349 -0.17252,0.29501 -0.36776,0.38466 -0.324,0.14878 -0.73578,0.0531 -0.92736,-0.21555 l -0.0985,-0.13815 -0.0112,-2.51345 -0.0112,-2.51345 -0.16322,0 -0.16323,0 0,6.56706 c 0,7.19873 0.0163,6.72075 -0.23813,6.98881 -0.20098,0.21175 -0.40592,0.29185 -0.74673,0.29185 -0.34081,0 -0.54576,-0.0801 -0.74673,-0.29185 -0.24947,-0.26284 -0.23814,-0.0591 -0.23814,-4.28043 l 0,-3.8587 -0.16414,0 -0.16414,0 0,3.8587 c 0,3.14458 -0.0103,3.88313 -0.0553,3.99074 -0.0827,0.19728 -0.26251,0.39179 -0.45131,0.48811 -0.18195,0.0928 -0.59506,0.13597 -0.76573,0.08 z m 0.92304,-16.90135 c -0.49607,-0.17719 -0.80267,-0.4503 -1.01969,-0.90833 -0.12012,-0.25351 -0.12878,-0.30222 -0.12878,-0.72406 0,-0.42684 0.007,-0.4674 0.1327,-0.72179 0.62553,-1.27064 2.43145,-1.27376 3.05592,-0.005 0.1293,0.26264 0.13529,0.29575 0.13529,0.74759 0,0.43454 -0.009,0.49166 -0.11471,0.70636 -0.1771,0.36066 -0.4387,0.62364 -0.796,0.80023 -0.27742,0.1371 -0.34787,0.15417 -0.68414,0.16579 -0.28217,0.01 -0.42574,-0.005 -0.58059,-0.0605 z"
       id="path2558"
       inkscape:connector-curvature="0" />
    <g
       id="layer1-7"
       transform="matrix(0.605,0,0,0.605,98.262778,291.97928)">
      <path
         inkscape:connector-curvature="0"
         style="fill:#000000;fill-opacity:1;fill-rule:evenodd;stroke:none"
         id="path3806"
         d="m 521.09723,409.99418 c -0.0905,0.61027 -0.12824,2.74732 0.22676,2.8024 0.60662,0.0941 1.80818,-2.01645 1.87238,-2.52602 0.0642,-0.50956 -0.27625,-0.93319 -0.91999,-1.11839 -0.6269,-0.18036 -1.08976,0.23916 -1.17915,0.84201 z m -3.05804,-10.93309 c -1.74135,0 -3.66706,0.22501 -3.66706,0.22501 -0.43997,-2.42927 -3.1436,-6.92987 -3.47024,-7.28031 -0.10228,-0.10974 -0.21006,-0.17774 -0.33284,-0.18224 -0.29728,-0.0109 -0.56536,0.25561 -0.74506,0.66847 -0.13416,0.30819 -1.63348,3.03947 -1.78167,7.4495 -0.0593,1.79441 0.73106,3.33016 1.72984,4.71138 -0.40859,1.141 -1.03814,2.49402 -1.02366,5.59838 0.01,2.12703 2.18544,5.37815 4.33434,6.99957 2.1489,1.62143 3.34714,5.26753 3.58927,6.1383 0.24213,0.87076 0.84367,1.23408 1.36708,1.23408 0.5234,0 1.12494,-0.36332 1.36707,-1.23408 0.24213,-0.87077 1.44037,-4.51687 3.58927,-6.1383 2.1489,-1.62142 4.32441,-4.87254 4.33434,-6.99957 0.0145,-3.10436 -0.61507,-4.45738 -1.02366,-5.59838 0.99877,-1.38122 1.78913,-2.91697 1.72984,-4.71138 -0.14819,-4.41003 -1.64752,-7.14131 -1.78167,-7.4495 -0.1797,-0.41286 -0.44778,-0.67937 -0.74507,-0.66847 -0.12277,0.005 -0.23055,0.0725 -0.33283,0.18224 -0.32664,0.35044 -3.03027,4.85104 -3.47024,7.28031 0,0 -1.92571,-0.22501 -3.66705,-0.22501 z m -3.05805,10.93309 c 0.0905,0.61027 0.12824,2.74732 -0.22676,2.8024 -0.60662,0.0941 -1.80818,-2.01645 -1.87238,-2.52602 -0.0642,-0.50956 0.27625,-0.93319 0.91999,-1.11839 0.6269,-0.18036 1.08976,0.23916 1.17915,0.84201 z" />
    </g>
  </g>
</svg>
