<?xml version="1.0" encoding="UTF-8" standalone="no"?>
<!-- Created with Inkscape (http://www.inkscape.org/) -->

<svg
   xmlns:dc="http://purl.org/dc/elements/1.1/"
   xmlns:cc="http://creativecommons.org/ns#"
   xmlns:rdf="http://www.w3.org/1999/02/22-rdf-syntax-ns#"
   xmlns:svg="http://www.w3.org/2000/svg"
   xmlns="http://www.w3.org/2000/svg"
   xmlns:sodipodi="http://sodipodi.sourceforge.net/DTD/sodipodi-0.dtd"
   xmlns:inkscape="http://www.inkscape.org/namespaces/inkscape"
   width="800"
   height="800"
   id="svg3554"
   version="1.1"
   inkscape:version="0.48.4 r9939"
   sodipodi:docname="New document 11">
  <defs
     id="defs3556" />
  <sodipodi:namedview
     id="base"
     pagecolor="#ffffff"
     bordercolor="#666666"
     borderopacity="1.0"
     inkscape:pageopacity="0.0"
     inkscape:pageshadow="2"
     inkscape:zoom="1"
     inkscape:cx="375"
     inkscape:cy="480"
     inkscape:document-units="px"
     inkscape:current-layer="layer1"
     showgrid="false"
     inkscape:window-width="1617"
     inkscape:window-height="1030"
     inkscape:window-x="61"
     inkscape:window-y="-3"
     inkscape:window-maximized="1" />
  <metadata
     id="metadata3559">
    <rdf:RDF>
      <cc:Work
         rdf:about="">
        <dc:format>image/svg+xml</dc:format>
        <dc:type
           rdf:resource="http://purl.org/dc/dcmitype/StillImage" />
        <dc:title></dc:title>
      </cc:Work>
    </rdf:RDF>
  </metadata>
  <g
     inkscape:label="Layer 1"
     inkscape:groupmode="layer"
     id="layer1"
     transform="translate(0,-252.36218)">
    <path
       id="path3827"
       style="fill:#000000"
       d="m 503.22232,746.6122 c 2.119,-2.7386 2.20229,-4.8254 0.26973,-6.758 -1.65261,-1.6526 -2.35979,-1.7816 -4.47732,-0.8168 -2.88416,1.3141 -3.18926,3.4167 -0.95803,6.6023 1.73867,2.4823 3.71019,2.8534 5.16562,0.9725 z m 28.48408,47.4297 c 1.5216,-0.6061 1.39377,-1.145 -1.1804,-4.9766 l -2.88679,-4.2968 -2.56961,4.3847 c -1.41328,2.4116 -2.5696,4.6827 -2.5696,5.0468 0,0.8517 6.97195,0.732 9.2064,-0.1581 z m -21.72824,23.9591 c -0.20195,-0.1986 -3.87373,-0.4236 -8.15951,-0.5 -9.45841,-0.1685 -10.2349,-1.4231 -4.52336,-7.3084 4.74706,-4.8916 6.52411,-12.1815 6.36891,-26.1268 -0.11381,-10.226 -0.39206,-11.2036 -3.18874,-11.2036 -2.31596,0 -7.2108,-4.6206 -9.41953,-8.8919 -1.96813,-3.8059 -2.32389,-15.7839 -0.64929,-21.8608 1.338,-4.8555 4.22103,-7.1879 9.80526,-7.9326 2.88193,-0.3843 4.43704,0.01 6.50092,1.6334 5.03558,3.9696 4.49875,11.4109 -1.13768,15.7701 -1.98604,1.536 -7.31845,1.6385 -8.78801,0.1689 -2.05816,-2.0581 -3.31991,0.048 -2.65022,4.4232 1.36762,8.9355 5.62311,13.1515 12.21141,12.0979 4.89583,-0.7828 4.87523,-0.7677 10.47297,-7.6956 5.86214,-7.2551 8.08646,-11.6007 10.62291,-20.7538 1.70617,-6.1569 1.86113,-8.2805 1.03124,-14.132 -1.90748,-13.4495 -9.74469,-23.6299 -19.34934,-25.1344 -4.55754,-0.714 -5.07068,-1.0915 -4.28102,-3.1493 1.37869,-3.5928 13.26974,0.3072 18.90265,6.1996 3.94907,4.1311 8.43542,15.6906 9.22039,23.7573 0.73784,7.5824 -1.05402,16.032 -5.51364,26 -2.83135,6.3285 -11.21661,16.1151 -15.6928,18.3154 l -3.42713,1.6846 -0.29326,14.7058 c -0.2514,12.6066 -0.5914,15.2777 -2.38187,18.7128 -1.56829,3.0089 -1.78603,4.1971 -0.87401,4.7696 0.66802,0.4194 5.76531,0.9349 11.3273,1.1455 9.97578,0.3778 10.11814,0.351 10.51344,-1.9754 0.22041,-1.2971 0.16969,-4.1583 -0.11271,-6.3583 -0.51067,-3.9785 -0.53901,-4.0017 -5.25745,-4.3046 -7.18594,-0.4613 -7.55314,-2.2959 -2.14257,-10.7051 2.45236,-3.8115 4.66758,-7.9561 4.92271,-9.2102 0.25513,-1.254 0.70495,-3.435 0.9996,-4.8466 0.34893,-1.6716 1.09607,-2.4561 2.14281,-2.25 1.73341,0.3414 1.95522,0.6938 5.34412,8.4916 1.237,2.8464 4.21295,7.1026 6.61322,9.4582 2.40026,2.3557 4.36412,4.8486 4.36412,5.5397 0,1.831 -3.34273,3.327 -7.43426,3.327 l -3.56574,0 0,8.5247 c 0,8.182 -0.10092,8.5632 -2.51001,9.4791 -2.28816,0.8699 -19.14902,0.9837 -20.01183,0.135 z"
       inkscape:connector-curvature="0" />
    <path
       id="path3821"
       style="fill:#000000"
       d="m 368.87282,788.6122 c 2.09079,-3.3154 2.69726,-6.0656 1.69107,-7.6687 -0.76883,-1.225 -1.39646,-1.225 -4.59533,0 -3.35564,1.285 -3.74069,1.8193 -4.08481,5.6687 -0.36945,4.1328 -0.29786,4.25 2.59511,4.25 1.99813,0 3.44096,-0.7388 4.39396,-2.25 z m -60.408,18.3157 c 0.56935,-1.0638 1.03518,-4.4558 1.03518,-7.5377 0,-6.6787 5.2434,-21.2956 10.41298,-29.028 1.83854,-2.75 4.90836,-7.475 6.82182,-10.5 1.91347,-3.025 5.11842,-7.2196 7.12211,-9.3212 4.09908,-4.2995 4.27003,-4.6788 2.10861,-4.6788 -4.16162,0 -22.54048,22.7551 -27.00072,33.43 -2.35112,5.627 -4.9652,23.4401 -4.00265,27.2752 0.70349,2.8029 2.11764,2.9485 3.50267,0.3605 z m -6.4861,10.8999 c -0.35162,-0.569 -1.06093,-4.0117 -1.57624,-7.6504 -1.12592,-7.9505 0.29381,-21.2418 3.14153,-29.4105 2.20432,-6.3231 11.88073,-22.9973 15.75247,-27.1443 1.40674,-1.5067 2.34655,-2.9507 2.08845,-3.2088 -0.85526,-0.8553 -10.45644,4.1333 -14.08234,7.3169 -3.65717,3.211 -6.80259,4.0893 -6.80259,1.8995 0,-2.6996 5.56108,-17.5424 8.19713,-21.8786 1.54158,-2.5358 2.80287,-4.9137 2.80287,-5.284 0,-1.5319 10.82559,-16.5618 16.20605,-22.5 3.18667,-3.5171 5.79397,-6.8921 5.794,-7.5 3e-5,-0.7441 -3.49673,-1.0751 -10.69764,-1.0128 -6.34394,0.055 -12.51335,-0.4538 -15.15898,-1.25 -2.45371,-0.7384 -4.78123,-1.3426 -5.17226,-1.3426 -0.39103,0 -1.23934,2.6857 -1.88514,5.9682 -1.09996,5.591 -2.46373,7.9874 -3.79052,6.6606 -0.66737,-0.6673 1.18733,-18.445 2.01018,-19.2678 0.30597,-0.306 3.09604,0.3939 6.20017,1.5553 8.95175,3.3493 23.03895,4.0967 35.85575,1.9024 1.02388,-0.1753 2.34277,0.4231 2.93085,1.3298 0.88164,1.3592 -0.55677,3.3769 -8.19836,11.5 -5.09718,5.4183 -11.82695,13.6765 -14.95504,18.3515 -6.78061,10.1337 -12.85842,21.614 -11.93281,22.5396 0.36508,0.365 3.90349,-0.957 7.86312,-2.9379 3.95964,-1.981 8.00254,-3.6017 8.98422,-3.6017 0.98168,0 4.40872,-0.6441 7.61564,-1.4314 3.20692,-0.7873 8.19129,-1.7293 11.07638,-2.0933 8.17544,-1.0314 7.71025,0.8034 -2.95193,11.6433 -13.56932,13.7954 -25.07371,33.3907 -26.4966,45.1314 -0.69613,5.744 0.15352,5.9465 5.3425,1.2732 2.12323,-1.9123 4.36782,-3.4873 4.98798,-3.5 0.62015,-0.013 1.65541,-0.6592 2.30057,-1.4366 1.4046,-1.6925 18.4627,-7.4043 24.64176,-8.2512 3.24505,-0.4448 4.54966,-1.1367 5.03669,-2.6712 0.9084,-2.8621 2.33447,-4.1044 6.29264,-5.4815 9.11484,-3.1713 12.83278,-0.1183 12.2563,10.0644 -0.0902,1.5935 -1.67421,4.4281 -3.77188,6.75 -3.15101,3.4878 -4.16902,4.0029 -7.91111,4.0029 -3.56811,0 -4.73276,-0.5206 -6.88364,-3.0768 -1.42389,-1.6921 -2.58889,-3.5422 -2.58889,-4.1112 0,-2.7209 -20.40524,3.9866 -27.5,9.0396 -8.49888,6.053 -15.12425,11.9987 -18.00898,16.1613 -2.66201,3.8413 -5.67817,5.1113 -7.0123,2.9527 z"
       inkscape:connector-curvature="0" />
    <path
       id="path3815"
       style="fill:#000000"
       d="m 419.51057,817.3749 c -2.2369,-2.6953 -0.44149,-4.5127 4.45805,-4.5127 l 4.53138,0 0,-9.9177 0,-9.9176 -3.71107,-1.8324 c -4.63484,-2.2884 -8.46342,-8.6643 -10.2332,-17.0417 -1.2409,-5.8739 -1.19588,-8.0761 0.48637,-23.7906 1.3188,-12.3193 12.10054,-31.9249 21.71594,-39.4883 1.51503,-1.1918 3.2256,-3.0469 3.80128,-4.1225 1.00284,-1.8739 0.78011,-1.9285 -5.31867,-1.3036 -5.50858,0.5643 -19.91633,-0.6437 -26.30979,-2.206 -1.72702,-0.422 -2.28162,0.2075 -3.35414,3.8074 -2.15098,7.2196 -3.05133,8.9892 -4.34107,8.5323 -1.58372,-0.5611 -1.27249,-4.6096 0.95718,-12.4515 1.95041,-6.8597 3.27049,-7.9932 6.69545,-5.7491 5.26457,3.4495 25.97909,4.1802 37.34808,1.3175 3.63889,-0.9163 4.6309,-0.8664 5.3501,0.2694 0.4856,0.7669 0.88981,1.7317 0.89823,2.144 0.008,0.4123 -4.42845,5.3623 -9.85972,11 -13.36903,13.8772 -14.56371,15.4046 -18.26409,23.3509 -3.86385,8.2973 -5.73739,17.8603 -5.80827,29.6468 -0.0466,7.7486 0.29817,9.4898 3.01975,15.25 2.2169,4.6921 3.6091,6.5027 5,6.5027 1.64343,0 1.92764,-0.7285 1.92764,-4.941 0,-2.7175 0.48921,-5.2433 1.08713,-5.6129 1.87077,-1.1562 3.41287,1.4827 3.41287,5.8402 0,5.3247 2.07566,5.922 7.68324,2.2111 3.851,-2.5485 4.01395,-2.8628 3.41747,-6.593 -0.8152,-5.098 1.01462,-12.1973 3.96406,-15.3798 2.68511,-2.8973 8.4084,-3.4668 10.42466,-1.0373 1.98197,2.3881 0.58801,4.251 -2.80793,3.7526 -3.63699,-0.5338 -5.73521,2.0972 -6.75175,8.4662 -0.60503,3.7907 -0.37072,4.5068 2.37253,7.25 1.67413,1.6741 3.44106,3.0439 3.92652,3.0439 0.48545,0 2.38723,-1.1101 4.22617,-2.4668 1.83894,-1.3567 3.72636,-2.2302 4.19428,-1.941 1.79588,1.1099 0.77048,5.3258 -1.78411,7.3352 -2.92456,2.3005 -6.49806,2.6194 -11.15583,0.9957 -2.68572,-0.9362 -3.58438,-0.7404 -6.88136,1.5 -2.08572,1.4173 -4.75766,2.5769 -5.93764,2.5769 -3.47898,0 -4.51383,2.306 -4.33923,9.6693 0.25294,10.6673 0.54184,11.3307 4.93488,11.3307 4.12609,0 6.39922,1.8327 5.4243,4.3732 -0.88207,2.2987 -22.50515,2.4223 -24.39969,0.1395 z"
       inkscape:connector-curvature="0" />
    <path
       id="path3811"
       style="fill:#000000"
       d="m 243.68886,798.6122 c 1.97259,-3.1281 1.20013,-5.9465 -1.52344,-5.5585 -2.21332,0.3153 -3.36474,3.5437 -2.27589,6.3812 0.78969,2.0579 2.17146,1.7587 3.79933,-0.8227 z m -12.88739,14.1702 c -3.02282,-1.4963 -4.4679,-2.9663 -5.16045,-5.2493 -3.91875,-12.9181 -1.23347,-24.3211 10.34291,-43.9209 4.1859,-7.0871 2.25132,-7.9624 -3.59705,-1.6275 -2.45548,2.6598 -4.35249,3.9128 -5.34639,3.5314 -1.73949,-0.6675 -2.02152,-3.8161 -0.57485,-6.4175 0.53111,-0.955 2.3172,-5.2232 3.9691,-9.4848 5.20488,-13.4277 11.3676,-24.771 17.31526,-31.8711 3.1625,-3.7753 5.75,-7.154 5.75,-7.5083 0,-0.3542 -1.97027,-0.374 -4.37837,-0.044 -4.05867,0.5563 -5.71077,0.2248 -19.62163,-3.938 -1.07829,-0.3227 -2.14792,1.3165 -3.8046,5.8305 -3.57186,9.7321 -4.07753,10.7793 -5.20535,10.7793 -2.02163,0 -2.08735,-2.7761 -0.20398,-8.6163 1.61061,-4.9943 2.74169,-8.7957 4.80046,-16.1337 0.5339,-1.903 2.09199,-1.5052 4.623,1.1802 1.25976,1.3366 4.76547,3.374 7.79047,4.5275 7.5072,2.8628 15.98807,2.016 24.42107,-2.4381 3.34341,-1.766 6.64143,-3.0178 7.32893,-2.7819 2.09972,0.7205 1.39447,3.7114 -1.25409,5.3184 -1.37726,0.8357 -7.01153,6.4476 -12.52062,12.4709 -8.01453,8.7626 -10.88097,12.7524 -14.34162,19.9622 -7.57944,15.7908 -8.32173,19.5021 -3.23382,16.1684 3.80622,-2.494 12.59234,-5.5877 17.84935,-6.2851 7.37713,-0.9786 6.4043,1.8173 -3.30123,9.4877 -12.0531,9.5257 -19.4688,20.4088 -22.454,32.9529 -2.94789,12.3873 -0.29986,20.6869 6.60026,20.6869 4.26698,0 5.33551,-3.0059 1.57655,-4.4351 -4.63907,-1.7638 -5.79402,-10.852 -1.83084,-14.4067 2.85321,-2.5592 8.33244,-2.9474 11.0882,-0.7856 1.9664,1.5425 2.51021,3.0394 2.85974,7.8717 0.37465,5.1794 0.0852,6.4904 -2.19321,9.9333 -2.55978,3.868 -7.92942,7.3232 -11.3786,7.3216 -0.94384,-4e-4 -3.60541,-0.936 -5.9146,-2.079 z"
       inkscape:connector-curvature="0" />
    <path
       id="path3807"
       style="fill:#000000"
       d="m 191.72673,778.1122 c 2.5249,-2.8754 3.00919,-5.8712 1.23579,-7.6446 -2.76687,-2.7669 -6.8261,-1.2772 -7.87169,2.8887 -1.32433,5.2766 3.28061,8.5769 6.6359,4.7559 z m -65.53887,32 c -0.88316,-1.5398 -1.93283,-30.3731 -1.73833,-47.75 0.32881,-29.376 0.99882,-38.2553 4.37447,-57.972 0.0968,-0.5654 -0.724,-0.8606 -1.824,-0.656 -6.75349,1.2561 -14.13645,1.1508 -15.99843,-0.2283 -2.95303,-2.1872 -1.43524,-2.8634 6.75903,-3.0111 6.46579,-0.1165 7.75579,-0.4665 10.62603,-2.8826 1.79675,-1.5125 3.90729,-2.75 4.69009,-2.75 1.68021,0 1.87304,4.1067 0.48397,10.3072 -0.51662,2.306 -1.64162,8.7124 -2.5,14.2364 -1.71537,11.0391 -2.14176,36.4564 -0.61158,36.4564 1.42287,0 5.80081,-6.1218 6.56328,-9.1777 0.67538,-2.7068 2.90701,-4.2992 4.57785,-3.2665 0.50037,0.3092 0.94139,1.9982 0.98004,3.7532 0.0387,1.755 0.39235,4.0078 0.78598,5.0062 0.67128,1.7026 0.83753,1.6805 2.67971,-0.3564 2.20612,-2.4393 8.61533,-5.9588 10.85139,-5.9588 0.80687,0 2.79168,1.607 4.41069,3.5711 l 2.94365,3.5712 3.86092,-2.0693 c 5.6699,-3.0389 9.94291,-3.6008 12.85787,-1.6909 2.17327,1.424 2.48504,2.4303 2.74558,8.8622 0.23837,5.8841 0.57749,7.1755 1.79393,6.8317 2.80567,-0.7932 8.38969,-0.051 10.62258,1.4123 4.82661,3.1626 4.22867,10.7492 -1.26789,16.0871 -3.75974,3.6512 -5.75036,4.1127 -9.79361,2.2705 -4.52157,-2.0602 -5.52361,-4.9247 -6.14429,-17.5643 -0.3182,-6.4799 -0.75002,-12.3363 -0.95961,-13.0142 -0.25565,-0.827 -1.46318,-1.0239 -3.66912,-0.5983 -7.14374,1.3782 -9.79091,5.4903 -9.7819,15.1952 0.004,3.9298 0.61532,7.8037 1.5,9.5 2.25481,4.3234 1.96346,6.8418 -0.74679,6.4552 -3.63995,-0.5191 -5.08716,-5.1535 -5.56454,-17.8195 -0.23838,-6.325 -0.84558,-12.2875 -1.34931,-13.25 -1.56084,-2.9823 -4.95269,-1.996 -9.51694,2.7675 -5.12653,5.3504 -5.09895,5.2146 -3.80022,18.7117 0.65724,6.8303 0.54173,7.8067 -0.99324,8.3957 -2.44259,0.9373 -3.20277,-0.7938 -3.94962,-8.9938 -1.76054,-19.3302 -1.66085,-18.8729 -3.70965,-17.0188 -3.09791,2.8036 -6.79337,9.9184 -7.31722,14.0877 -0.27188,2.1639 0.14476,11.5193 0.92586,20.7898 0.78109,9.2705 1.19007,17.2277 0.90882,17.6828 -0.63821,1.0327 -4.12465,1.09 -4.70545,0.077 z"
       inkscape:connector-curvature="0" />
    <path
       id="path3805"
       style="fill:#000000"
       d="m 581.1248,767.5771 c -2.61643,-1.9132 -3.28683,-9.0556 -1.15531,-12.3087 1.47864,-2.2567 2.22949,-2.5545 5.21807,-2.0695 5.02778,0.8159 6.31244,2.2907 6.31244,7.2468 0,6.7945 -5.5855,10.6337 -10.3752,7.1314 z m 20.34002,42.3508 c 1.39286,-2.6026 1.30319,-4.3169 -0.34359,-6.569 -1.31429,-1.7974 -1.50134,-1.8053 -4,-0.1681 -3.01464,1.9753 -3.33271,4.2277 -0.96624,6.8426 2.13515,2.3594 4.01063,2.3221 5.30983,-0.1055 z m -8.89202,4.2064 c -3.91466,-4.7491 -4.15781,-9.8992 -0.65938,-13.9664 2.00176,-2.3271 3.20773,-2.8057 7.07034,-2.8057 3.34392,0 4.92526,0.4795 5.60865,1.7006 0.52344,0.9354 1.68966,2.4386 2.59159,3.3405 1.51982,1.5198 1.88807,1.2489 5.03052,-3.7006 4.23446,-6.6696 9.51982,-17.6745 11.94016,-24.8612 2.90687,-8.6314 2.59561,-36.4035 -0.59097,-52.7293 -1.31507,-6.7375 -2.73069,-12.25 -3.14582,-12.25 -0.41512,0 -1.68029,1.4975 -2.81147,3.3278 -1.13119,1.8303 -4.58451,5.6431 -7.67404,8.4729 -5.39854,4.9446 -5.59197,5.2952 -4.96592,9.0008 0.45203,2.6755 0.2405,4.1968 -0.69105,4.9699 -2.61905,2.1736 -3.93181,-0.4789 -5.38422,-10.8791 -3.03364,-21.7229 -6.27356,-26.6145 -13.66889,-20.6373 -3.66059,2.9586 -9.48708,20.0093 -10.98328,32.1415 -1.90316,15.4322 1.25799,32.7203 6.90457,37.7605 3.87719,3.4609 8.9437,2.291 12.85641,-2.9686 1.60492,-2.1574 1.99085,-4.2028 1.9537,-10.3545 l -0.0463,-7.666 5.09977,0.046 c 2.80487,0.025 5.9757,-0.2273 7.0463,-0.5612 1.0706,-0.3338 2.52428,-0.2437 3.23041,0.2002 1.95074,1.2264 0.31272,4.1473 -2.32576,4.1473 -5.35132,0 -7.28478,1.6286 -7.95287,6.699 -0.81732,6.203 -3.13061,11.6004 -6.21293,14.4961 -3.6085,3.39 -12.07181,3.2857 -15.83139,-0.1952 -4.8474,-4.4879 -7.10877,-9.2027 -8.39368,-17.5 -2.65464,-17.1423 -0.0693,-37.6648 6.74857,-53.5702 2.09404,-4.8852 8.40593,-9.9326 12.41275,-9.926 4.96134,0.01 8.40758,3.4304 10.65064,10.5765 1.16644,3.7161 2.1208,7.7792 2.1208,9.0291 0,1.25 0.40987,2.5259 0.91082,2.8355 1.59564,0.9862 11.91411,-10.5955 14.80418,-16.6165 2.93455,-6.1136 3.67464,-6.6066 6.59462,-4.3927 1.37788,1.0447 1.71105,2.3577 1.39647,5.5034 -0.22722,2.2723 0.42797,8.9531 1.45599,14.8462 4.06075,23.2783 4.20618,48.3309 0.34664,59.7148 -4.62505,13.6417 -13.91644,29.3365 -21.16408,35.75 -6.86369,6.0736 -9.92712,6.293 -14.27184,1.0221 z"
       inkscape:connector-curvature="0" />
    <path
       id="path3803"
       style="fill:#000000"
       d="m 33.74342,812.7417 c -3.58735,-1.0356 -7.51452,-6.2844 -8.68319,-11.6053 -1.91327,-8.71105 0.42428,-30.10036 4.09544,-37.47456 1.93868,-3.8942 1.68642,-4.69961 -1.40567,-4.48792 -1.9136,0.131 -2.70648,-0.26796 -2.60689,-1.31174 0.50556,-5.29918 3.85887,-17.94224 6.38103,-24.05855 1.63672,-3.96909 2.97586,-7.74412 2.97586,-8.38896 0,-0.64484 2.25,-5.61846 5,-11.05249 2.75,-5.43403 5,-9.96229 5,-10.0628 0,-0.10051 -2.1375,-0.40687 -4.75,-0.6808 -2.6125,-0.27392 -5.38326,-0.66868 -6.15724,-0.87722 -0.95045,-0.2561 -2.28566,1.893 -4.11343,6.62082 -1.61911,4.18811 -3.36359,7.12988 -4.34276,7.32332 -2.19907,0.43446 -2.1055,-2.09491 0.36343,-9.82332 1.1,-3.4433 2,-7.04682 2,-8.00783 0,-3.47009 2.33841,-4.06858 6.96091,-1.78155 3.97048,1.96444 4.8906,2.04943 10.93714,1.01022 9.66752,-1.66153 10.3155,-0.50846 4.54669,8.09082 -7.49272,11.16902 -18.84005,37.62636 -16.94878,39.51763 0.2887,0.2887 1.78233,-0.67979 3.31919,-2.15219 3.22485,-3.08961 7.19229,-3.60255 7.17078,-0.9271 -0.008,0.9625 -1.85883,5.125 -4.11354,9.25 -7.83534,14.33474 -11.9127,32.96386 -9.90916,45.27412 1.18952,7.3087 3.34762,10.506 7.63405,11.3101 6.37606,1.1962 10.51618,-0.3459 15.90272,-5.9231 4.9527,-5.1281 6.85953,-9.33157 10.50664,-23.16112 3.18093,-12.06185 1.39919,-44.77056 -2.90741,-53.37348 -2.90898,-5.811 -3.41442,-9.06834 -1.51995,-9.79532 1.16134,-0.44564 3.60651,1.54311 8.52492,6.93367 6.10456,6.69057 15.15567,14.37136 25.42578,21.57637 2.00871,1.40921 3.12202,2.90205 2.79664,3.75 -0.77929,2.03079 -3.72414,1.73198 -5.82662,-0.59124 -0.99549,-1.1 -2.36013,-2 -3.03254,-2 -0.67242,0 -1.83356,-0.7362 -2.58034,-1.63601 -0.74677,-0.8998 -2.98195,-2.66131 -4.96708,-3.91446 -1.98512,-1.25316 -5.12951,-3.66695 -6.98754,-5.364 -3.32574,-3.03759 -4.95129,-3.81033 -4.91306,-2.33553 0.0107,0.4125 0.67143,5.25 1.46829,10.75 0.79687,5.5 1.46312,13.70336 1.48056,18.22969 0.0306,7.93948 -2.22428,23.14656 -3.90017,26.30313 -0.4476,0.84306 -1.13065,2.9754 -1.5179,4.73854 -0.38725,1.76314 -1.11947,3.46246 -1.62716,3.77616 -0.50768,0.3138 -0.92306,1.4361 -0.92306,2.4939 0,1.6809 -5.73597,8.2132 -10.20813,11.6253 -3.87456,2.9562 -12.43541,3.9775 -18.54845,2.2128 z"
       inkscape:connector-curvature="0" />
    <path
       id="path3793"
       style="fill:#000000"
       d="m 438.46706,585.40187 c 1.61197,-1.9423 4.99519,-15.1319 5.01206,-19.53969 0.0163,-4.26024 -3.09161,-9.6385 -6.45547,-11.17118 -3.41575,-1.55632 -8.30409,-0.003 -10.88926,3.45906 -1.52884,2.04771 -2.04874,4.18334 -1.99099,8.17854 0.0655,4.52984 0.65356,6.20807 3.6245,10.3434 3.83716,5.34104 7.8562,9.91575 8.85966,10.08459 0.34515,0.0581 1.17293,-0.55155 1.8395,-1.35472 z m 9.31797,32.15993 c 0.27445,-0.71521 -0.047,-2.32066 -0.71441,-3.56767 -1.05736,-1.9757 -1.37391,-2.07389 -2.46141,-0.76354 -0.93523,1.12688 -0.97117,2.021 -0.14342,3.56767 1.26073,2.35569 2.59086,2.66167 3.31924,0.76354 z M 439,669.9168 c -2.97466,-1.2175 -5.11054,-3.9622 -8.00765,-10.2904 -3.58583,-7.83246 -5.18652,-16.38747 -5.40064,-28.86414 -0.19548,-11.39071 1.30086,-18.70466 6.57911,-32.15804 l 2.67963,-6.8299 -5.58155,-5.70607 c -7.49017,-7.65727 -9.7689,-12.20379 -9.7689,-19.49092 0,-10.28875 5.44881,-16.71515 14.17243,-16.71515 8.75854,0 12.8524,4.05541 14.34935,14.21459 0.7964,5.40485 -0.67027,12.61114 -4.18354,20.55527 -2.36593,5.34977 -2.1098,8.47295 0.77366,9.43411 1.01779,0.33926 2.91609,3.16303 7.26101,10.80091 2.81656,4.95119 2.39816,13.31496 -0.82746,16.54057 -3.33544,3.33545 -7.77494,3.27944 -10.00642,-0.12622 -4.16468,-6.3561 -2.69403,-14.41923 2.62995,-14.41923 1.55706,0 2.83102,-0.25737 2.83102,-0.57193 0,-1.47361 -5.25391,-9.31153 -6.58377,-9.82184 -2.70667,-1.03865 -8.59235,16.20686 -9.98373,29.25313 -1.31381,12.31892 5.18755,36.26136 10.63862,39.17866 3.41197,1.8261 6.00578,-0.8963 11.71226,-12.29272 5.89718,-11.77729 7.66975,-19.36306 8.7486,-37.44006 0.57855,-9.69397 0.0822,-16.51304 -2.15144,-29.55524 -0.59334,-3.46457 -0.461,-3.74935 1.73862,-3.74145 2.04738,0.007 2.64828,0.88273 4.29029,6.25 3.82698,12.50933 8.8565,17.60113 12.69882,12.85607 1.71555,-2.11861 3.53058,-14.27192 2.40374,-16.09519 -1.10227,-1.78351 0.53285,-5.01943 2.53633,-5.01943 2.5981,0 3.34938,3.55822 2.66417,12.6182 -0.99747,13.1889 -6.57897,18.30739 -15.11129,13.85775 -1.59433,-0.83144 -3.00126,-1.39117 -3.12651,-1.24384 -0.12525,0.14734 -0.49711,4.31789 -0.82636,9.26789 -1.42665,21.44875 -2.82518,27.75232 -9.03325,40.71554 C 450.1517,669.6182 446.19308,672.8609 439,669.9168 z"
       inkscape:connector-curvature="0" />
    <path
       id="path3791"
       style="fill:#000000"
       d="m 610.83872,662.3025 c -0.61848,-1.6118 1.94086,-4.8436 9.01241,-11.38039 2.11812,-1.95796 5.00427,-5.58493 6.41367,-8.05993 1.4094,-2.475 3.65592,-5.98759 4.99228,-7.80575 4.44153,-6.04284 11.99715,-25.19245 13.1172,-33.24534 2.25765,-16.23192 -1.96484,-38.63383 -8.62428,-45.75508 -1.7863,-1.91018 -1.56118,-5.19383 0.35608,-5.19383 0.88334,0 2.46912,1.09717 3.52394,2.43816 1.05482,1.34099 4.39284,3.64906 7.41782,5.12905 5.09137,2.49097 6.63107,2.7187 20.72606,3.06549 26.17775,0.64407 40.99224,3.09693 47.23083,7.82009 3.56327,2.6977 7.76668,10.61963 7.31495,13.78604 -0.3987,2.7946 -3.61956,3.59341 -4.37514,1.08508 -1.64909,-5.4746 -4.87682,-10.19673 -8.25335,-12.07457 -4.50201,-2.50376 -10.61446,-4.24721 -11.86643,-3.38465 -1.36003,0.93701 -3.32476,8.32453 -3.32476,12.50133 0,3.18615 -0.30081,3.63398 -2.44098,3.63398 -1.34254,0 -2.72308,-0.45643 -3.06785,-1.01429 -1.73059,-2.80015 -8.65455,-4.98868 -16.23893,-5.13281 -7.86809,-0.14953 -11.60868,0.92288 -13.85763,3.97292 -1.60726,2.17977 -4.61083,0.71437 -4.21475,-2.05632 0.20521,-1.43547 1.87225,-3.09403 4.64347,-4.61985 3.75229,-2.06599 5.67615,-2.38286 14.56542,-2.39899 5.7601,-0.0105 11.1693,0.47763 12.36093,1.11537 3.02004,1.61628 3.18673,1.53042 4.87543,-2.51123 1.90756,-4.56543 1.01621,-5.29264 -6.62511,-5.40517 -19.855,-0.29237 -30.05493,-0.86398 -33.85094,-1.89702 -2.39302,-0.65123 -4.58033,-0.95468 -4.86068,-0.67432 -0.28036,0.28036 0.2542,2.93852 1.18791,5.90703 1.16088,3.69073 1.74921,9.32077 1.86068,17.80599 0.20572,15.65814 -0.45813,20.07111 -4.35495,28.94967 -1.72587,3.93223 -3.72211,8.80521 -4.43609,10.82884 -0.71397,2.02362 -3.15389,6.55053 -5.42203,10.05978 -5.71328,8.83955 -5.5568,9.55044 2.12578,9.65751 3.43768,0.0479 11.87532,0.22393 18.75032,0.39114 21.53851,0.52385 30.50299,-1.81648 35.30086,-9.21589 3.09762,-4.77724 3.37831,-7.35441 1.07786,-9.89637 -1.98587,-2.19436 -1.14408,-4.86599 1.53319,-4.86599 2.77544,0 5.08809,3.75988 5.08809,8.27217 0,7.22443 -5.53934,14.59555 -12.92728,17.20217 -7.2023,2.54112 -21.48998,3.70728 -36.57272,2.98518 -16.92251,-0.81024 -22.06626,0.4383 -29.6857,7.2054 -5.15285,4.5765 -7.49068,5.342 -8.47558,2.7754 z M 698.5,657.7397 c 0,-1.2108 -0.71014,-1.8775 -2,-1.8775 -1.42857,0 -2,0.6666 -2,2.3333 0,1.2833 0.2961,2.6294 0.65799,2.9913 1.02715,1.0272 3.34201,-1.3605 3.34201,-3.4471 z m -4.97177,8.0093 c -1.35947,-0.5426 -2.81508,-1.5265 -3.23469,-2.1866 -1.20849,-1.9012 -0.91597,-10.1778 0.40646,-11.5002 1.85997,-1.85999 9.24577,-1.46939 11.83319,0.6258 1.91238,1.5485 2.14691,2.4006 1.54451,5.6117 -0.73147,3.8991 -4.49171,8.6112 -6.78225,8.4991 -0.7125,-0.035 -2.40775,-0.5073 -3.76722,-1.0498 z"
       inkscape:connector-curvature="0" />
    <path
       id="path3775"
       style="fill:#000000"
       d="m 369.3,639.66218 c 0.66,-0.66 1.2,-2.41186 1.2,-3.89301 0,-3.36405 -2.90345,-4.75952 -4.72362,-2.27029 -1.54622,2.11458 -1.58215,2.92344 -0.2412,5.42904 1.1974,2.23736 2.08802,2.41106 3.76482,0.73426 z m -6.55,4.52558 c -3.40216,-2.37323 -3.21539,-10.4511 0.32347,-13.98996 2.14408,-2.14408 3.18689,-2.47527 6.25,-1.98495 5.03962,0.80669 7.40379,3.88027 6.56482,8.53471 -0.91756,5.09042 -2.13144,7.06647 -5.01419,8.16249 -3.43228,1.30495 -5.47876,1.123 -8.1241,-0.72229 z m -9.93523,19.81474 c -1.72203,-1.5728 -4.12707,-4.8122 -5.34455,-7.1987 -1.83595,-3.59876 -2.10933,-5.33659 -1.60242,-10.18641 1.2692,-12.14306 5.31162,-13.44454 4.82615,-1.5538 -0.29283,7.17225 -0.16135,7.68629 3.04301,11.89741 2.83665,3.7278 3.95451,4.4455 7.30606,4.6909 3.11169,0.2278 4.68547,-0.3062 7.36717,-2.5 6.5534,-5.36102 8.74362,-7.83347 12.21565,-13.78972 7.67099,-13.15954 10.03668,-26.89946 9.29753,-54 -0.28502,-10.45 -0.47508,-22.88816 -0.42235,-27.64035 l 0.0959,-8.64034 -4.09413,-0.39044 c -2.25176,-0.21474 -4.45523,-0.15158 -4.8966,0.14035 -0.44136,0.29193 -1.08366,4.59128 -1.42732,9.55412 -0.34366,4.96284 -1.16179,10.58784 -1.81807,12.5 -2.6755,7.7954 -11.69297,15.97666 -17.60968,15.97666 -4.14527,0 -10.79341,-3.70003 -12.20169,-6.79085 -1.8625,-4.08774 -1.18647,-12.85662 1.63574,-21.21737 1.47684,-4.37513 2.4326,-8.20735 2.1239,-8.51604 -0.30869,-0.3087 -2.19202,-0.8259 -4.18517,-1.14935 -3.37294,-0.54735 -3.6239,-0.41117 -3.6239,1.96648 0,1.405 -0.53203,4.85943 -1.18229,7.6765 -0.99772,4.32238 -1.50507,5.07209 -3.25,4.80255 -1.23406,-0.19063 -1.92135,-0.9146 -1.7047,-1.79566 0.19965,-0.81194 0.60028,-5.42622 0.89028,-10.25394 0.29,-4.82773 0.92426,-9.02304 1.40946,-9.32291 0.4852,-0.29987 3.18902,0.22099 6.00847,1.15746 3.82475,1.27038 6.83889,1.54351 11.87164,1.07576 5.62196,-0.5225 6.8468,-0.36254 7.35449,0.96047 0.82041,2.13794 -0.10271,3.4069 -2.47839,3.4069 -4.18667,0 -10.91896,14.6293 -10.91896,23.72696 0,5.29283 3.32781,9.27304 7.7531,9.27304 3.53597,0 10.55941,-6.45178 12.83517,-11.79049 1.46862,-3.44523 2.04812,-14.89279 1.20024,-23.70951 l -0.28851,-3 11.5,0.007 11.5,0.007 -0.3272,2.49265 c -0.17996,1.37095 -0.47841,15.09264 -0.66322,30.49264 -0.39798,33.16226 -0.74658,37.97105 -3.56947,49.23905 -2.2618,9.02836 -3.55841,11.82223 -9.48647,20.44102 -6.84748,9.95556 -13.72287,14.81076 -20.98078,14.81616 -4.13728,0 -5.58135,-0.5024 -8.15809,-2.8559 z"
       inkscape:connector-curvature="0" />
    <path
       id="path3773"
       style="fill:#000000"
       d="m 240.76438,634.36447 c -6.19998,-2.38623 -11.03206,-6.59935 -14.20049,-12.3815 -0.92358,-1.68547 -1.58429,-6.72498 -1.85131,-14.12079 -0.64463,-17.8542 3.22091,-31.28963 12.13643,-42.18255 2.55804,-3.12541 4.65099,-5.91037 4.65099,-6.1888 0,-1.18345 -14.91759,4.96061 -19.48665,8.02591 -2.74266,1.83999 -5.55516,3.34544 -6.25,3.34544 -1.89863,0 -1.51869,-4.08792 0.59813,-6.43555 2.21011,-2.4511 4.13852,-7.81608 4.13852,-11.51367 0,-2.64674 1.58033,-5.05078 3.32019,-5.05078 0.50623,0 0.72495,2.69916 0.48619,6 -0.2387,3.3 -0.21025,6 0.0632,6 0.27348,0 3.00219,-0.86952 6.06381,-1.93226 9.40539,-3.26477 20.43543,-5.56639 24.81658,-5.17843 2.21421,0.19607 1.33152,3.0135 -1.5,4.78781 -4.13633,2.59193 -12.38782,10.28447 -15.55344,14.49985 -1.5419,2.05321 -4.19887,7.46584 -5.90439,12.02807 -2.81505,7.53021 -3.10615,9.40129 -3.15746,20.29496 -0.0445,9.43952 0.3123,12.74681 1.67199,15.5 4.15656,8.41647 17.52113,14.56513 26.35011,12.12292 8.45043,-2.33749 17.92016,-13.76344 20.31039,-24.50605 0.50381,-2.26428 1.22694,-5.46687 1.60697,-7.11687 2.23813,-9.71748 1.09821,-32.34838 -1.71702,-34.08829 -0.47143,-0.29136 -0.85715,-1.31576 -0.85715,-2.27645 0,-0.96068 -1.125,-3.27155 -2.5,-5.13526 -3.07971,-4.17431 -3.26487,-7 -0.4587,-7 1.37141,0 3.07241,1.6587 5.18325,5.05432 l 3.14194,5.05433 3.43058,-5.60896 c 2.66552,-4.3581 3.90696,-5.54102 5.56675,-5.30433 1.3122,0.18713 2.25636,1.14905 2.44775,2.49377 l 0.31158,2.18912 4.58736,-2.43912 c 9.08083,-4.82833 13.28949,-2.40732 13.28949,7.6447 0,5.468 0.0754,5.62442 2.48756,5.1633 3.5091,-0.67081 4.06247,1.70632 1.4342,6.16091 -4.3263,7.33252 -8.77956,2.932 -9.18902,-9.0802 -0.21682,-6.36079 -0.39628,-6.85096 -2.62348,-7.16583 -1.5353,-0.21706 -3.16804,0.50028 -4.56307,2.00475 -3.75641,4.05112 -4.30281,5.75386 -3.39893,10.59208 0.97254,5.20579 -0.27826,7.82512 -3.00903,6.30125 -1.077,-0.601 -1.98622,-3.25162 -2.65401,-7.73714 l -1.01578,-6.82295 -2.84414,4.2153 c -2.53126,3.75157 -2.72204,4.56556 -1.73422,7.39922 1.71909,4.9314 1.31365,19.67936 -0.8346,30.35846 -3.16848,15.75078 -7.81856,23.53223 -18.2087,30.4705 -5.49194,3.66738 -6.66332,4.05183 -12.21073,4.00764 -3.9775,-0.0317 -8.32963,-0.89314 -12.37167,-2.44883 z m 16.66304,22.86283 c 2.47241,-3.14314 2.64897,-5.81339 0.5009,-7.57569 -0.86442,-0.70919 -2.43942,-2.07693 -3.5,-3.03943 -2.42234,-2.19834 -2.43367,-2.19732 -4.88937,0.43856 -2.22167,2.38468 -2.71099,7.6872 -1.00377,10.87716 1.55726,2.9098 6.34931,2.5322 8.89224,-0.7006 z m -7.55315,7.8625 c -4.84556,-0.7617 -8.43882,-8.10514 -7.56773,-15.466 0.48229,-4.07544 5.62776,-8.76162 9.62034,-8.76162 4.83906,0 11.29681,5.01021 12.12111,9.40409 0.76672,4.08701 -0.85576,9.65943 -3.51252,12.06383 -2.1007,1.9011 -7.39877,3.2725 -10.6612,2.7597 z"
       inkscape:connector-curvature="0" />
    <path
       id="path3767"
       style="fill:#000000"
       d="m 591.5,614.36218 c 0.99319,-1.19672 0.99319,-1.80328 0,-3 -1.68764,-2.03348 -2.74293,-1.8853 -3.49716,0.49105 -1.14126,3.59581 1.20071,5.276 3.49716,2.50895 z m -6.50887,4.11717 c -2.41696,-1.76732 -2.50348,-7.42318 -0.16808,-10.98746 1.31374,-2.00502 2.54901,-2.62971 5.2,-2.62971 4.54218,0 7.47695,2.91533 7.47695,7.42742 0,5.98209 -7.6297,9.75749 -12.50887,6.18975 z m -16.55832,-0.47049 c -1.77014,-1.43338 -2.30507,-2.9162 -2.36078,-6.54408 -0.0628,-4.08749 0.28424,-4.90936 2.69815,-6.39054 2.51433,-1.54279 3.02231,-1.55846 5.5,-0.1696 4.02751,2.25761 5.72575,6.34604 4.18304,10.07047 -2.05798,4.9684 -6.11451,6.19655 -10.02041,3.03375 z M 516.5,562.75377 c 0,-5.07079 -0.0202,-5.1034 -2.75,-4.42924 -4.65331,1.14924 -4.88859,2.28358 -1.25189,6.0357 1.86682,1.92607 3.53095,3.50195 3.69806,3.50195 0.16711,0 0.30383,-2.29878 0.30383,-5.10841 z m -0.98738,100.24233 c -4.73513,-4.9776 -6.52514,-11.24398 -6.46549,-22.63392 0.0508,-9.70725 1.01562,-12.5504 6.72284,-19.81177 5.39127,-6.85939 17.84467,-11.15947 30.47309,-10.52218 l 6.61734,0.33395 0.17939,-9.5 c 0.21959,-11.62885 1.88342,-21.78846 4.60398,-28.11257 1.12744,-2.62079 1.80287,-5.16476 1.50096,-5.65326 -0.31801,-0.51454 -3.40866,-0.52322 -7.34683,-0.0206 -6.63695,0.84702 -12.96071,0.64727 -24.48777,-0.77348 l -5.68988,-0.7013 -0.31012,4.88062 c -0.26915,4.23567 -0.61698,4.92409 -2.63224,5.20961 -1.68682,0.23899 -3.69868,-1.0261 -7.35382,-4.6242 -2.76744,-2.72427 -6.73946,-5.51682 -8.8267,-6.20567 -3.90411,-1.28847 -7.13144,-5.36297 -5.42716,-6.85179 0.51138,-0.44673 3.35034,-1.34311 6.30878,-1.99196 2.95845,-0.64884 7.60792,-2.29924 10.33217,-3.66755 7.69334,-3.86414 8.23846,-3.57331 7.82123,4.17291 -0.19846,3.68451 0.0188,3.78496 11.47308,5.30517 7.50229,0.9957 15.3417,0.61029 33.23749,-1.63406 5.9227,-0.74278 6.62125,1.51584 1.85817,6.00801 -7.3261,6.90939 -11.24143,21.68399 -10.24509,38.66014 0.69737,11.88228 0.006,14.30682 -3.46519,12.15431 -3.31059,-2.05286 -13.75718,-3.24172 -18.39085,-2.09296 -2.2,0.54542 -6.6072,2.1969 -9.79378,3.66995 -4.89727,2.26386 -6.27841,3.52533 -8.92573,8.15236 -7.49685,13.1031 -3.05196,35.11634 7.09065,35.11634 5.99632,0 9.28252,-8.11879 5.28462,-13.05599 -2.32776,-2.87466 -4.90029,-2.03209 -5.33364,1.74691 -0.2573,2.24376 -0.82522,2.80906 -2.82212,2.80906 -2.24549,0 -2.48818,-0.38414 -2.38387,-3.77334 0.15499,-5.03593 2.71516,-7.72666 7.35177,-7.72666 7.1657,0 12.12926,8.7405 9.43859,16.62072 -2.00156,5.862 -5.49159,8.3793 -11.61709,8.3793 -4.61863,0 -5.44559,-0.3643 -8.77678,-3.8661 z"
       inkscape:connector-curvature="0"
       sodipodi:nodetypes="sssssssssssssssssssssssscssssscsssssssssssscssssssssssss" />
    <path
       id="path3763"
       style="fill:#000000"
       d="m 181.89301,561.28039 c 1.63184,-4.25249 -0.10975,-7.96028 -3.26816,-6.95783 -1.48354,0.47085 -2.12485,1.49914 -2.12485,3.40701 0,4.39166 4.04768,7.0567 5.39301,3.55082 z m -27.38465,103.62437 c -2.23851,-1.43962 -0.25407,-2.79793 5.49164,-3.75892 l 5,-0.83626 0.12842,-6.4737 c 0.15914,-8.0228 -0.6038,-9.54574 -5.15182,-10.28378 -1.97984,-0.32129 -5.59674,-1.84545 -8.03756,-3.38704 -3.70917,-2.34265 -4.68306,-3.64503 -5.93117,-7.93175 -3.01144,-10.34298 -2.27541,-26.00359 1.39464,-29.67364 1.82386,-1.82386 3.14253,1.05946 1.92955,4.21904 -1.80362,4.69811 -1.00473,21.90181 1.2137,26.13624 1.04022,1.98553 10.61243,7.22783 12.21953,6.69213 2.02088,-0.67362 1.04729,-14.87617 -1.14918,-16.76404 -3.96311,-3.40629 -5.1292,-6.34957 -4.05581,-10.23708 0.55829,-2.02196 1.70526,-4.36648 2.54882,-5.21004 2.21276,-2.21276 7.65718,-1.89871 10.86797,0.6269 2.43844,1.91807 2.69093,2.65632 2.24913,6.57601 -0.3367,2.98714 -1.38329,5.33975 -3.23554,7.27308 -2.60407,2.71806 -2.70351,3.1786 -2.03468,9.42399 0.42276,3.94769 1.16994,6.56627 1.87359,6.56625 1.91077,-5e-5 6.20732,-6.13751 8.00028,-11.42811 3.53124,-10.41981 1.36192,-25.52488 -5.66748,-39.46292 -5.80242,-11.50517 -7.90693,-19.33545 -8.04998,-29.95164 -0.1095,-8.12648 -0.0346,-8.40497 2.88759,-10.74504 5.36256,-4.29421 13.74806,-2.1942 18.31918,4.58774 1.89326,2.80892 2.27153,4.43989 1.91576,8.26013 -0.52964,5.68721 -2.95911,8.73987 -6.95567,8.73987 -4.16621,0 -6.40883,-1.49861 -7.67409,-5.12811 -1.66842,-4.78604 -1.34032,-7.99269 1.08158,-10.57068 1.6317,-1.73687 1.89856,-2.61589 1.05134,-3.46311 -1.47914,-1.47914 -6.20522,1.46592 -6.31461,3.93495 -0.0421,0.94982 -0.22537,2.50156 -0.40731,3.4483 -0.74148,3.85837 3.67305,19.54386 7.93998,28.21191 7.0276,14.27624 7.90628,17.62266 7.89466,30.06674 -0.009,9.75471 -0.31038,11.66009 -2.66122,16.83074 -2.47299,5.4393 -6.07051,9.73011 -10.24763,12.22248 -1.5731,0.93863 -1.66597,1.86295 -0.85356,8.49563 l 0.91159,7.44241 5.30834,0.83993 c 4.66671,0.73841 5.27107,1.10155 5,3.00437 -0.29512,2.07166 -0.84416,2.1752 -12.80834,2.41538 -6.875,0.13801 -13.17124,-0.18075 -13.99164,-0.70836 z"
       inkscape:connector-curvature="0" />
    <path
       id="path3743"
       style="fill:#000000"
       d="m 700.89301,510.28039 c 1.41206,-3.67977 -0.007,-8.41821 -2.52158,-8.41821 -1.53548,0 -3.87143,3.24103 -3.87143,5.37143 0,4.09775 5.06367,6.51099 6.39301,3.04678 z m -5.61213,5.53193 c -4.73529,-2.50347 -6.14741,-5.18082 -5.45505,-10.34273 0.616,-4.59259 4.34204,-8.60987 7.97993,-8.60367 4.06763,0.007 8.38096,3.5128 9.11126,7.40562 0.70645,3.76574 -2.29274,12.59064 -4.279,12.59064 -0.53595,0 -1.57375,0.20618 -2.30623,0.45819 -0.73249,0.252 -3.0054,-0.42662 -5.05091,-1.50805 z M 731.3,510.66218 c 1.70515,-1.70515 1.48573,-3.86261 -0.55,-5.40795 -2.94202,-2.23332 -4.25,-1.63587 -4.25,1.94128 0,4.66359 2.09211,6.17456 4.8,3.46667 z m -7.25344,6.8577 c -1.50714,-1.10204 -1.92324,-3.16036 -2.32483,-11.5 l -0.48912,-10.1577 2.58074,0 c 1.54116,0 5.17928,1.96683 9.03158,4.88263 3.54797,2.68545 7.02776,5.07493 7.73287,5.30997 2.29132,0.76377 0.15734,3.63844 -6.14517,8.27808 -6.68058,4.91796 -7.62327,5.20723 -10.38607,3.18702 z m -35.66621,-65.86861 c 0.12969,-2.84241 0.45878,-5.5288 0.7313,-5.96975 0.27252,-0.44095 0.477,-6.88726 0.45439,-14.32515 -0.0363,-11.93347 -0.3071,-14.08017 -2.30357,-18.25881 -1.24436,-2.60446 -3.05846,-4.88251 -4.03134,-5.06234 -2.24047,-0.41413 -4.45748,4.60857 -5.03593,11.40899 -0.51682,6.07598 1.62096,22.52625 3.62806,27.91797 4.85948,13.05415 6.11954,13.87837 6.55709,4.28909 z m 23.60558,74.18815 c -0.34765,-0.56252 -0.73442,-15.84773 -0.85948,-33.96713 -0.12506,-18.1194 -0.51662,-33.23361 -0.87014,-33.58713 -0.35351,-0.35352 -1.64205,1.48315 -2.86342,4.08149 -2.88229,6.13182 -6.60303,8.46285 -11.94808,7.48544 -2.19333,-0.40108 -4.15199,-0.45039 -4.35256,-0.10957 -0.20057,0.34081 -0.6802,3.54466 -1.06583,7.11966 -0.70517,6.53719 -1.50821,9.94502 -6.24465,26.5 -5.24897,18.34645 -13.99376,25.57218 -23.2969,19.25 -4.4989,-3.05734 -6.96706,-8.24852 -7.24983,-15.24824 -0.26316,-6.51453 1.63722,-8.79315 2.75618,-3.30473 2.51684,12.34501 4.90621,15.80297 10.91947,15.80297 2.51224,0 7.00067,-3.94931 9.06845,-7.97922 3.35499,-6.53854 7.95262,-23.64941 9.94735,-37.02078 1.22855,-8.23539 1.19844,-8.59339 -0.96737,-11.5 -7.50782,-10.0758 -10.75664,-21.57939 -10.87309,-38.5 -0.073,-10.61361 0.21579,-13.10286 1.91397,-16.49483 3.77384,-7.5379 10.88636,-6.98975 14.89496,1.14795 2.42603,4.92499 3.44967,19.16195 2.43359,33.84688 -1.55303,22.44543 -1.65914,20.79418 1.40695,21.89434 5.41677,1.94363 10.11486,-5.18629 14.1722,-21.50806 1.42003,-5.71245 3.15863,-16.23628 3.86356,-23.38628 1.16755,-11.84223 1.45746,-13 3.25522,-13 2.43341,0 2.50554,2.10539 0.99349,29 -0.58751,10.45 -0.94985,35.0875 -0.8052,54.75 0.25559,34.74115 0.20855,35.75 -1.66686,35.75 -1.06143,0 -2.21432,-0.46024 -2.56198,-1.02276 z"
       inkscape:connector-curvature="0" />
    <path
       id="path3733"
       style="fill:#000000"
       d="m 424.75084,491.08628 c -3.11304,-2.39646 -4.55681,-7.80984 -2.97013,-11.13645 0.99705,-2.09038 2.05307,-2.64692 5.49528,-2.89605 3.6035,-0.26081 4.71542,0.14596 7.20543,2.63597 2.53071,2.53071 2.82452,3.36229 2.09126,5.91902 -1.65688,5.7772 -2.95595,7.2547 -6.35786,7.23117 -1.76815,-0.0122 -4.22694,-0.80138 -5.46398,-1.75366 z m -22.56529,21.60159 c 1.62217,-1.52395 2.31445,-3.29726 2.31445,-5.92858 0,-4.50182 -2.09884,-6.89711 -6.04349,-6.89711 -2.64548,0 -3.03741,0.47047 -4.45542,5.34826 -1.6744,5.75973 -1.29976,8.28127 1.33405,8.97881 3.36946,0.89238 4.58623,0.6257 6.85041,-1.50138 z m -9.46614,5.57739 c -1.84148,-0.80482 -3.76534,-2.6334 -4.38563,-4.16843 -1.12604,-2.78659 -1.38901,-58.01275 -0.28152,-59.12025 1.19154,-1.19153 3.90361,1.75323 5.20196,5.64827 0.78452,2.35356 3.07039,5.65303 5.33187,7.69615 3.53515,3.19379 4.43284,3.53206 8.39171,3.16223 5.02931,-0.46983 12.57034,-5.87968 15.15021,-10.86859 2.49626,-4.82724 2.94608,-15.71457 0.83981,-20.32673 -4.56299,-9.99172 -8.50581,-12.39692 -17.99056,-10.97459 -3.62008,0.54286 -5.48289,1.64973 -9.4457,5.61254 -7.87381,7.87381 -9.10552,6.42621 -4.69351,-5.5162 1.63518,-4.42611 3.92577,-9.62248 5.09019,-11.54748 3.60171,-5.95426 4.93484,-8.97025 4.26233,-9.64277 -0.35518,-0.35518 -3.75849,-0.79294 -7.5629,-0.97281 -3.80441,-0.17987 -8.80375,-0.75093 -11.10964,-1.26903 -4.14004,-0.93021 -4.21022,-0.89967 -5.60528,2.43919 -0.77701,1.85965 -1.41275,3.86798 -1.41275,4.46296 0,2.20088 -3.09918,6.98246 -4.52568,6.98246 -1.95122,0 -1.86212,-1.52555 0.52568,-9 1.1,-3.4433 2,-7.30036 2,-8.57125 0,-3.28299 0.96456,-3.53154 7.08043,-1.8245 6.93838,1.93661 29.20269,2.85953 38.91957,1.61333 9.03436,-1.15867 12.48243,-0.014 10.23469,3.3975 -0.57811,0.87743 -8.50755,1.79163 -20.4098,2.35307 -1.04756,0.0494 -9.82489,14.91047 -9.82489,16.63471 0,1.13712 0.57985,1.3448 2.25,0.80584 3.91626,-1.26377 14.39313,-0.64461 17.65765,1.04354 3.52238,1.8215 7.60764,7.76893 9.84324,14.33006 1.87638,5.50689 1.15198,15.38818 -1.58107,21.56669 -1.77894,4.0216 -7.82955,9.9144 -12.85408,12.51882 -5.1105,2.64898 -16.90072,0.48311 -19.13861,-3.51578 -0.56492,-1.00945 -1.24418,-1.61412 -1.50947,-1.3437 -0.26528,0.27042 -0.62402,6.11667 -0.79719,12.99167 l -0.31485,12.5 5.09352,-0.33242 c 4.52875,-0.29557 5.49243,0.0178 8.69121,2.82639 6.68966,5.8736 5.57377,15.43789 -2.31871,19.87371 -4.35178,2.44584 -6.21922,2.53839 -10.80223,0.5354 z"
       inkscape:connector-curvature="0" />
    <path
       id="path3729"
       style="fill:#000000"
       d="m 630.81209,457.86218 c 0.33871,-1.48478 -0.0401,-3.31217 -0.93272,-4.5 -1.4852,-1.97627 -1.52009,-1.97697 -2.9412,-0.0589 -1.84015,2.4837 -1.80974,3.58336 0.17756,6.42063 1.7655,2.5206 2.81752,1.99073 3.69636,-1.86176 z m -3.89486,7.8568 c -3.68,-0.98759 -5.41723,-4.26267 -5.41723,-10.21272 0,-5.41483 1.57516,-7.5386 6.14071,-8.27949 5.50518,-0.89337 7.85929,1.9355 7.85929,9.44428 0,8.13846 -2.42922,10.69934 -8.58277,9.04793 z m -57.97393,35.92069 c 1.99675,-2.85076 2.03987,-10.13161 0.0697,-11.76671 -3.28243,-2.72418 -9.08622,0.81282 -10.03859,6.1178 -0.53645,2.98813 -0.24952,4.00302 1.62565,5.75 2.94485,2.74355 6.37994,2.70193 8.34325,-0.10109 z m -8.40928,5.47096 c -5.13017,-2.58796 -7.30001,-7.12977 -7.83687,-16.40379 -0.42009,-7.25684 -0.2136,-8.36894 2.62427,-14.13348 2.24113,-4.55237 4.38764,-7.19973 7.87941,-9.71792 8.38037,-6.04372 9.70806,-6.4106 23.29917,-6.43827 11.6797,-0.0238 12.84992,0.15405 17.83216,2.70978 2.93269,1.50438 5.47894,2.73523 5.65833,2.73523 0.1794,0 0.31607,-5.9625 0.30371,-13.25 -0.019,-11.22277 0.36303,-14.58874 2.4971,-22 1.38576,-4.8125 2.38419,-8.75 2.21872,-8.75 -0.16546,0 -5.18927,2.43705 -11.16403,5.41566 -8.82177,4.39795 -12.17702,5.54104 -17.85459,6.08286 -8.86675,0.84615 -15.13781,-0.57118 -22.02756,-4.9785 -6.91638,-4.42435 -8.85381,-8.04917 -7.92229,-14.82212 0.84784,-6.16455 4.41374,-10.22368 9.88268,-11.24966 6.1471,-1.15321 7.7404,2.69778 1.66799,4.0315 -3.79874,0.83435 -6.04425,3.44982 -6.76266,7.87686 -0.75786,4.67013 1.22949,7.7121 7.41303,11.3469 4.33971,2.55097 5.59151,2.79054 14.25741,2.72866 9.34845,-0.0668 9.64357,-0.14359 18.5,-4.81668 4.95,-2.61186 11.62172,-6.55385 14.82604,-8.75997 6.773,-4.66308 9.18484,-4.54668 8.15669,0.39366 -0.3721,1.78796 -1.50186,4.68639 -2.51058,6.44095 -6.21436,10.80922 -8.69981,35.38821 -4.93353,48.78824 2.50662,8.91826 2.47249,9.52164 -0.53862,9.52164 -1.51872,0 -2.5,-0.56988 -2.5,-1.45186 0,-2.30347 -6.8194,-8.31268 -12.69648,-11.18807 -4.6009,-2.25101 -6.72544,-2.64017 -14.61545,-2.67716 -8.53381,-0.04 -9.69158,0.20168 -15.30899,3.19573 -4.11718,2.19443 -7.12153,4.72089 -9.31588,7.83403 -4.51951,6.41188 -5.54873,14.37286 -1.3102,10.13433 0.63415,-0.63415 3.18871,-1.19665 5.6768,-1.25 6.57936,-0.14108 9.67623,3.16665 9.82966,10.49892 0.13344,6.37723 -1.23257,9.30713 -5.57328,11.95385 -3.92194,2.39138 -5.25128,2.41874 -9.65216,0.19868 z"
       inkscape:connector-curvature="0" />
    <path
       id="path3725"
       style="fill:#000000"
       d="m 484.76856,431.26028 c 0.61362,-0.61362 -1.45638,-5.67972 -4.35852,-10.667 l -1.61124,-2.7689 -3.21197,6.02627 c -3.47366,6.51725 -3.42995,6.62699 2.91317,7.31296 1.925,0.20817 3.9875,0.45051 4.58333,0.53853 0.59584,0.088 1.35419,-0.11081 1.68523,-0.44186 z m -3.62041,4.91671 c -0.21278,-0.21278 -3.70816,-0.48315 -7.76751,-0.60084 L 466,435.36218 465.70294,432.3307 c -0.21584,-2.20262 0.39935,-3.68571 2.25,-5.42431 1.40088,-1.31606 2.54706,-2.90518 2.54706,-3.53137 0,-0.62619 1.125,-3.47055 2.5,-6.32078 1.375,-2.85024 2.5,-6.30946 2.5,-7.68716 0,-1.72479 0.54501,-2.50013 1.75,-2.48959 2.6497,0.0232 3.63537,1.06868 5.64225,5.98469 3.84393,9.41602 6.66465,14.91417 9.19294,17.91887 3.89904,4.63375 2.71891,6.18097 -4.54817,5.96291 -3.3011,-0.099 -6.17609,-0.35419 -6.38887,-0.56697 z m 16.2527,69.60783 c 2.22988,-3.66674 1.74776,-6.26728 -1.65865,-8.94676 -5.04532,-3.96866 -9.02064,-2.04661 -9.93975,4.80582 -0.64677,4.82209 1.43918,7.2183 6.28368,7.2183 2.773,0 3.80757,-0.59904 5.31472,-3.07736 z m -10.51273,7.13658 c -5.77716,-2.44171 -7.99942,-10.26706 -4.97278,-17.51085 2.22385,-5.32242 6.53419,-6.78089 13.06298,-4.42005 3.0333,1.09686 3.30632,0.94323 9.79054,-5.50915 8.3012,-8.26045 21.23672,-25.43901 24.17605,-32.10617 4.28784,-9.72592 5.90241,-17.85436 5.21571,-26.25826 -0.59474,-7.27864 -0.85614,-7.96131 -4.25758,-11.11941 -3.34792,-3.10841 -4.02286,-3.33159 -8.86176,-2.93031 -3.36009,0.27864 -5.95191,1.12637 -7.22971,2.36467 -2.42839,2.35332 -4.51527,9.67995 -4.11009,14.4297 0.24909,2.9199 -0.053,3.54965 -1.8242,3.80287 -2.79251,0.39924 -3.26727,-1.11633 -3.45568,-11.03142 -0.0864,-4.54896 -0.60926,-8.83334 -1.16182,-9.52084 -0.55257,-0.6875 -2.49527,-1.25 -4.31713,-1.25 -4.44528,0 -8.44265,-1.61749 -8.44265,-3.41623 0,-2.19633 0.84985,-2.34846 8.80645,-1.57648 5.92601,0.57496 7.59831,1.12557 8.85115,2.91425 1.47259,2.10242 1.63405,2.1245 3.45904,0.4729 2.06771,-1.87125 11.09855,-3.05922 15.27929,-2.00992 1.36856,0.34349 4.51945,2.53499 7.00197,4.87 4.38968,4.12885 4.53085,4.45151 5.13898,11.74548 0.73145,8.77306 -1.6052,23.2273 -4.76893,29.5 -1.1096,2.2 -4.06318,6.925 -6.56351,10.5 -2.50033,3.575 -5.62179,8.06596 -6.93658,9.97992 -1.31478,1.91395 -5.96292,7.20793 -10.32919,11.76439 -4.36627,4.55647 -7.93867,8.69871 -7.93867,9.20499 0,0.50627 0.47496,2.16973 1.05546,3.69657 2.21991,5.8388 -2.89538,12.82574 -10.05546,13.73468 -2.475,0.31419 -5.45035,0.16959 -6.61188,-0.32133 z"
       inkscape:connector-curvature="0" />
    <path
       id="path3719"
       style="fill:#000000"
       d="m 24.5,554.1682 c -4.43183,-1.5839 -5.30969,-7.40177 -1.4941,-9.90184 4.94629,-3.24094 10.99505,1.87017 8.29305,7.00749 -1.77208,3.36929 -3.45977,4.08774 -6.79895,2.89435 z m 31.83036,-6.13849 c 0.4184,-2.95409 -2.58354,-6.34663 -5.27519,-5.96155 -2.66914,0.38186 -3.28782,4.91851 -0.98482,7.22152 2.34581,2.3458 5.84918,1.64067 6.26001,-1.25997 z m -9.92915,4.72671 c -3.26804,-3.49844 -3.6258,-6.56503 -1.33026,-11.40251 1.96564,-4.14228 5.32044,-5.11163 10.00206,-2.89006 6.27481,2.97759 8.08045,8.30022 4.90131,14.44799 -1.35207,2.61461 -2.04608,2.95034 -6.09879,2.95034 -3.82641,0 -5.04682,-0.50711 -7.47432,-3.10576 z m -7.33422,105.64386 c 4.18654,-6.38946 2.28757,-15.02215 -3.81083,-17.32404 -2.77418,-1.04713 -3.25751,-0.88887 -5.88919,1.92835 -3.66032,3.91839 -4.03523,11.10267 -0.79439,15.22273 2.82441,3.59066 8.19704,3.6792 10.49441,0.17296 z m -11.27913,5.81224 c -4.6107,-1.87056 -7.63239,-14.8062 -4.77504,-20.44159 2.39066,-4.71497 4.48105,-6.90875 6.58315,-6.90875 0.9823,0 2.03955,-0.41026 2.34945,-0.9117 0.30991,-0.50143 1.195,-9.61393 1.96688,-20.25 1.18857,-16.37774 1.19728,-21.86433 0.0569,-35.8383 -0.74058,-9.075 -1.60497,-17.4 -1.92086,-18.5 -0.31589,-1.1 -0.13961,-2.66739 0.39173,-3.48309 0.84568,-1.29826 1.5639,-1.25814 5.76301,0.32197 7.4598,2.8071 17.128,3.05964 32.29692,0.84363 7.98099,-1.16594 17.99697,-1.91299 24.5,-1.82736 9.64671,0.12703 11.69887,0.47246 16.68065,2.80778 7.76921,3.64198 12.24673,9.66902 11.35712,15.28746 -0.74676,4.7163 -2.08384,6.54961 -4.77679,6.54961 -2.07641,0 -2.07079,0.24215 -0.17071,-7.36239 0.77391,-3.09736 -4.18612,-8.85862 -9.43463,-10.95866 -3.37315,-1.34967 -12.17065,-2.11992 -20.44639,-1.79015 l -2.79075,0.1112 0.67326,19.25 c 0.3703,10.5875 0.79682,19.39568 0.94782,19.57374 0.15101,0.17805 1.77888,-0.45878 3.61749,-1.41519 4.19602,-2.18268 11.37449,-2.22613 15.49052,-0.0938 1.95544,1.01305 3.99424,3.37961 5.383,6.2484 1.87395,3.87106 2.13226,5.60468 1.59746,10.72132 -0.35087,3.35696 -0.97455,6.35375 -1.38595,6.65953 -0.41139,0.30578 -3.82935,6.75927 -7.59544,14.34109 -6.68319,13.45444 -6.83905,13.9441 -6.49706,20.41151 0.37288,7.05144 -0.62589,8.68421 -3.53353,5.77657 -2.30447,-2.30447 -2.16996,-12.45847 0.22881,-17.27152 1.01468,-2.03593 3.43724,-6.85169 5.38346,-10.70169 7.39478,-14.62828 8.77166,-18.1933 8.77166,-22.71159 0,-8.53334 -6.79068,-12.87966 -14.44683,-9.24658 -4.21349,1.99943 -6.01227,5.02633 -6.99364,11.76855 -0.59209,4.06778 -1.0091,4.76243 -2.70145,4.5 -1.93107,-0.29945 -2.0193,-1.27506 -2.51507,-27.81034 -0.28258,-15.125 -0.91598,-27.9848 -1.40755,-28.57734 -0.63599,-0.76662 -3.85602,-0.6747 -11.16461,0.31873 -6.43633,0.87486 -14.29271,1.192 -21.04349,0.84946 l -10.77265,-0.54661 0.77265,10.22788 c 0.97207,12.86785 0.98931,33.43849 0.0419,50.00809 l -0.73074,12.78022 2.46598,1.12358 c 2.92171,1.33122 6.4955,8.19902 6.4955,12.48249 0,4.15223 -1.86535,9.37849 -4.31284,12.0835 -1.66946,1.84513 -3.03909,2.23579 -7.61147,2.17105 -3.06663,-0.0434 -6.12116,-0.30024 -6.78783,-0.57071 z"
       inkscape:connector-curvature="0" />
    <path
       id="path3715"
       style="fill:#000000"
       d="m 323.37494,407.29404 c 1.64876,-2.09606 1.82102,-3.00505 0.93713,-4.94498 -2.64187,-5.79827 -8.7198,-3.59345 -8.79842,3.19169 -0.0185,1.59555 2.8107,4.32143 4.4852,4.32143 0.74579,0 2.26503,-1.15566 3.37609,-2.56814 z m 0.61779,108.47949 c -3.73383,-1.86082 -7.84294,-10.47187 -8.96055,-18.77772 -1.37791,-10.24028 1.14575,-19.54591 9.3621,-34.52133 1.77668,-3.23823 2.86479,-6.2411 2.41802,-6.67305 -0.44676,-0.43195 -2.1623,-0.93248 -3.8123,-1.1123 -1.85469,-0.20213 -3,-0.8996 -3,-1.82695 0,-1.10599 1.38928,-1.57975 5.28904,-1.80361 5.82849,-0.33458 5.31369,0.28755 10.83231,-13.09091 2.41458,-5.85352 2.43102,-20.19426 0.0285,-24.82584 -2.73357,-5.26969 -4.6183,-5.62305 -9.03397,-1.69373 -4.38502,3.90204 -6.79202,4.2138 -11.30202,1.46386 -4.15288,-2.53219 -5.66322,-5.50923 -4.96811,-9.79269 0.99376,-6.12385 3.10169,-8.25708 8.15915,-8.25708 3.72185,0 5.04022,0.56467 7.97695,3.41663 1.935,1.87915 3.51819,3.895 3.51819,4.47968 0,0.58467 1.79718,1.9799 3.99374,3.10049 5.04824,2.57542 6.82119,6.62579 7.61022,17.38574 0.53551,7.30284 0.29039,9.01518 -2.44255,17.06296 -1.67078,4.92003 -2.81405,9.30753 -2.54058,9.75 0.27346,0.44248 1.93315,0.81139 3.68819,0.81981 4.02962,0.0193 6.15439,1.33467 5.38689,3.33474 -0.42922,1.11855 -2.30645,1.63541 -6.72253,1.85093 l -6.12701,0.29902 -3.01733,5.5 c -1.65953,3.025 -3.57446,6.175 -4.25539,7 -5.01507,6.07615 -7.66125,20.73894 -5.63062,31.20002 2.02288,10.4212 7.53777,14.35602 13.52266,9.6483 4.8245,-3.79495 6.87919,-10.09531 6.71757,-20.59832 -0.13087,-8.50514 0.0123,-9.25 1.77819,-9.25 1.05628,0 2.21189,0.47145 2.56801,1.04766 1.32103,2.13747 0.96688,18.41481 -0.47762,21.95234 -1.80261,4.41452 -5.51713,9.41962 -8.38558,11.29911 -2.98091,1.95316 -9.70309,2.84344 -12.17353,1.61224 z"
       inkscape:connector-curvature="0" />
    <path
       id="path3699"
       style="fill:#000000"
       d="m 668.09846,337.11218 c 0.82302,-2.0625 2.62516,-5.775 4.00476,-8.25 1.37959,-2.475 4.79562,-9.10621 7.59118,-14.73602 4.77719,-9.62051 5.11236,-10.80061 5.57394,-19.62503 0.66462,-12.70635 -2.54822,-26.04581 -4.31845,-17.92985 -1.36882,6.27563 -5.78683,21.85917 -6.46133,22.7909 -0.39816,0.55 -1.5211,3.475 -2.49542,6.5 -3.40548,10.57304 -11.34328,23.66521 -17.74947,29.275 -1.11485,0.97626 -1.82665,1.97536 -1.58178,2.22023 0.54698,0.54698 10.84164,3.34803 12.63914,3.43896 0.71556,0.0362 1.97441,-1.62169 2.79743,-3.68419 z m 52.9269,4.12305 c 1.24779,-1.58018 3.4395,-4.22305 4.87046,-5.87305 1.43095,-1.65 2.60229,-3.27078 2.60296,-3.60174 6.7e-4,-0.33096 -9.33628,-0.89423 -20.74878,-1.2517 -11.4125,-0.35747 -22.89426,-1.02887 -25.51501,-1.492 -4.62742,-0.81773 -4.81785,-0.75271 -6.59483,2.2517 -2.74952,4.64871 -4.49956,9.56768 -3.69144,10.3758 1.30031,1.30034 19.54903,2.72023 33.30011,2.59099 l 13.50781,-0.12694 z m 30.27902,21.73719 0.30438,-5.23255 -4.04668,2.31115 c -2.22567,1.27114 -4.05014,2.99443 -4.05438,3.82954 -0.008,1.64494 4.86214,5.11441 6.4923,4.62478 0.55,-0.1652 1.13697,-2.65501 1.30438,-5.53292 z m -79.01324,25.20836 c -2.21402,-0.58225 -5.08751,-5.41038 -7.33147,-12.3186 -1.9028,-5.85792 -2.32589,-15.75203 -1.07821,-25.21402 0.75121,-5.69692 0.74503,-5.71567 -2.064,-6.26851 -5.15344,-1.01422 -15.79121,-4.6485 -17.69289,-6.04458 -2.50989,-1.84258 -1.45544,-4.13149 2.2814,-4.95224 3.52956,-0.77522 10.64453,-8.23451 14.59869,-15.30518 7.4354,-13.29564 15.93747,-39.57204 16.73322,-51.71547 0.38352,-5.85259 2.6776,-5.10517 6.49734,2.11688 4.76496,9.0092 6.62255,24.70478 4.16482,35.1903 -0.60498,2.58105 -2.62998,7.87639 -4.5,11.76741 -1.87002,3.89103 -3.40004,7.55107 -3.40004,8.13343 0,1.82279 4.75549,2.27891 30.73101,2.94751 23.73768,0.611 25.26724,0.76361 25.84324,2.5784 0.45898,1.44612 -0.78594,3.29406 -4.97336,7.38239 -3.07208,2.99938 -6.24448,6.72756 -7.04979,8.28486 -0.96953,1.87487 -2.53461,3.04552 -4.63265,3.46513 -4.94123,0.98825 -24.84281,0.74607 -38.09905,-0.46362 -8.10368,-0.7395 -12.35444,-0.76765 -13.03577,-0.0863 -0.55604,0.55604 -1.31292,4.53733 -1.68195,8.84731 -1.11603,13.03445 3.26182,27.3363 8.36775,27.3363 2.62217,0 6.58006,-4.36976 8.47704,-9.35921 1.00859,-2.65278 1.54266,-14.59718 0.85585,-19.14079 -0.2547,-1.68499 0.24895,-1.99111 3.19768,-1.94355 5.59987,0.0903 29.16853,3.31178 33,4.51059 1.925,0.6023 6.42181,1.43078 9.99291,1.84107 l 6.49291,0.74598 6.3203,-4.32705 c 3.47616,-2.37987 7.36443,-4.32704 8.64059,-4.32704 2.11134,0 2.3779,0.56286 2.95992,6.25 0.71062,6.94377 0.0461,15.69726 -1.29332,17.03669 -1.09795,1.09795 -10.51374,-3.5908 -14.89811,-7.41876 -1.97248,-1.72216 -4.42669,-2.86793 -6.14303,-2.86793 -2.60395,0 -11.3699,-1.49797 -23.07217,-3.94269 -2.475,-0.51705 -8.04181,-1.23495 -12.37069,-1.59533 l -7.87068,-0.65524 0.44745,3.83281 c 0.94861,8.12552 -2.54431,18.87082 -7.67494,23.61045 -2.8682,2.64962 -6.13676,3.27917 -10.74,2.0686 z"
       inkscape:connector-curvature="0" />
    <path
       id="path3695"
       style="fill:#000000"
       d="M 81.91111,508.78545 C 83.335,507.09326 84.5,505.16838 84.5,504.50796 c 0,-4.3331 -7.62916,-7.87376 -10.58874,-4.91418 -1.90347,1.90347 -1.80117,8.73563 0.16017,10.69697 2.39091,2.39092 4.97945,1.89389 7.83968,-1.5053 z m -12.3098,4.00292 C 64.98654,505.2 66.5547,495.67892 72.67938,494.09982 L 76,493.24369 l 0.51025,-8.44076 c 0.28063,-4.64241 0.50563,-15.41575 0.5,-23.94075 l -0.0102,-15.5 -4.47036,0.10259 c -4.13125,0.0948 -4.86153,0.53996 -9.62715,5.8683 -2.83624,3.17114 -5.66419,7.45922 -6.28433,9.52906 -0.66483,2.21901 -1.04403,9.86477 -0.92405,18.6317 0.28804,21.04713 -1.99513,29.47244 -8.87588,32.75364 -1.86235,0.88809 -5.05832,1.6004 -7.10216,1.58291 -3.4977,-0.0299 -7.21607,-1.79259 -7.21607,-3.42071 0,-0.40262 -0.9,-1.8762 -2,-3.27462 -1.54704,-1.96674 -1.99653,-4.04078 -1.98469,-9.15773 0.018,-7.76989 1.01582,-10.16412 3.40847,-8.17839 1.04487,0.86716 1.57622,2.96987 1.57622,6.23758 0,3.27781 0.75387,6.24968 2.25,8.86985 1.87626,3.28588 2.77854,3.9417 5.43191,3.94812 3.53117,0.009 6.64257,-3.38604 8.47496,-9.24632 1.10858,-3.54541 1.10901,-61.4933 6e-4,-80.54908 L 49,407.75598 42,407.2882 c -8.24343,-0.55088 -10.07612,-0.78033 -13.75,-1.72152 -1.5125,-0.38747 -3.875,-0.93807 -5.25,-1.22355 -1.375,-0.28548 -2.5,-1.18548 -2.5,-2 0,-1.78231 3.46964,-1.91862 11.11351,-0.4366 9.70056,1.88077 35.51428,2.16665 42.14947,0.46679 8.70184,-2.22931 10.73702,-2.04187 10.73702,0.98886 0,2.09879 -0.47101,2.5 -2.9349,2.5 -1.6142,0 -4.14876,0.46151 -5.63237,1.02557 -1.4836,0.56407 -6.70693,1.08783 -11.60738,1.16392 -4.90046,0.0761 -9.1488,0.52485 -9.44076,0.99724 -0.29195,0.4724 -0.20885,10.27183 0.18467,21.77652 l 0.71549,20.91761 5.10763,-5.31459 c 4.08415,-4.24965 5.94567,-5.4402 9.28991,-5.94142 11.0248,-1.65236 13.84932,4.41423 11.81433,25.37515 -0.24028,2.475 -0.48748,9.36845 -0.54933,15.31878 l -0.11244,10.81879 3.57336,3.4704 c 5.71948,5.55469 6.05484,12.21172 0.88693,17.60585 -2.32247,2.42414 -3.42657,2.78618 -8.49693,2.78618 -5.43413,0 -5.95382,-0.20754 -7.6969,-3.07381 z"
       inkscape:connector-curvature="0" />
    <path
       id="path3685"
       style="fill:#000000"
       d="m 560.67431,351.54773 c -2.89854,-3.08536 -2.99174,-9.86812 -0.17431,-12.68555 2.40147,-2.40147 3.62982,-2.47044 8.41191,-0.47236 4.71753,1.97111 6.32336,5.28304 4.59026,9.46713 -2.51362,6.0684 -8.8748,7.89862 -12.82786,3.69078 z m 14.64612,-72.60781 3.32043,-2.84098 -4.70711,-3.17679 -4.70712,-3.17679 0.63669,3.18341 c 0.35017,1.75087 0.63668,4.47716 0.63668,6.05841 0,3.54902 0.62438,3.5429 4.82043,-0.0473 z m 14.51355,100.17226 c 3.46714,-6.88252 2.71605,-12.25 -1.71418,-12.25 -3.17392,0 -5.23033,2.68711 -6.01651,7.86176 -0.75961,4.99984 0.43671,7.13824 3.99347,7.13824 1.56318,0 2.81645,-0.92221 3.73722,-2.75 z m -9.62052,5.73925 c -4.68018,-3.68143 -6.07433,-9.54392 -5.45684,-22.94638 l 0.54848,-11.90441 5.69472,-11.22549 c 6.90819,-13.61751 10.97968,-19.22102 18.08621,-24.89172 2.97768,-2.37606 5.41397,-4.70287 5.41397,-5.17068 0,-1.35695 -12.24053,-0.98348 -17.25799,0.52656 -5.18184,1.5595 -15.89997,7.69252 -19.93231,11.40546 -2.4987,2.30078 -5.8097,2.53813 -5.8097,0.41649 0,-0.91784 17.44645,-18.28432 25,-24.88541 2.475,-2.16292 7.5375,-6.13011 11.25,-8.81599 3.7125,-2.68588 6.75,-5.45124 6.75,-6.14524 0,-1.32363 -2.43212,-1.86815 -12.74798,-2.85413 -5.77364,-0.55183 -6.5708,-0.37376 -10.5,2.34553 -2.33861,1.61849 -5.60202,4.32823 -7.25202,6.02165 -1.65,1.69343 -3.94563,3.09145 -5.1014,3.10673 -1.98474,0.0262 -2.13338,-0.62174 -2.67766,-11.67312 -0.54827,-11.13245 0.0729,-15.2991 2.28091,-15.2991 0.51232,0 2.46649,1.535 4.34261,3.41112 1.87611,1.87612 4.92426,4.1936 6.77365,5.14996 4.16878,2.15576 15.94059,3.64672 30.37404,3.84703 9.10775,0.1264 11.04391,0.42135 11.2941,1.7205 0.20378,1.05813 -1.86283,2.67402 -6.35584,4.96967 -6.83468,3.49209 -27.50365,18.54322 -28.13519,20.48801 -0.24257,0.747 2.1874,0.93925 7.77987,0.61551 5.5727,-0.3226 10.79167,0.0872 16.58019,1.30198 7.51821,1.57774 8.41442,2.00062 8.14615,3.84377 -0.21678,1.48943 -1.33626,2.28487 -3.98649,2.83261 -5.27179,1.08954 -13.67348,6.7774 -19.39097,13.1275 -2.70819,3.00783 -7.34777,10.13158 -10.31019,15.83056 -4.53603,8.72622 -5.46492,11.42807 -5.88475,17.11705 l -0.49852,6.75528 3.60263,-1.50528 c 5.26724,-2.20079 8.07352,-1.86195 11.5611,1.39594 2.32153,2.16863 3.10576,3.77837 3.10576,6.375 0,6.21241 -1.22155,9.8163 -4.50865,13.30163 -3.83895,4.07049 -8.71299,4.60886 -12.77789,1.41141 z"
       inkscape:connector-curvature="0" />
    <path
       id="path3683"
       style="fill:#000000"
       d="m 260.8997,465.09687 c -3.24541,-2.16702 -4.36635,-9.01903 -2.23918,-13.68764 1.45493,-3.19323 5.88457,-3.42665 10.58948,-0.55801 2.53436,1.54523 3.27609,2.70044 3.36848,5.24626 0.17364,4.78445 -0.12544,6.0706 -1.86372,8.0147 -1.59502,1.78387 -7.73881,2.39774 -9.85506,0.98469 z m -12.30473,-21.42085 c 6.43694,-12.61743 8.23639,-32.37514 3.47847,-38.19305 -2.34859,-2.87183 -2.36102,-2.8744 -4.85134,-1 -4.95376,3.72857 -7.69186,18.03642 -5.76036,30.10056 1.01683,6.35109 3.48635,13.27865 4.73354,13.27865 0.14524,0 1.2251,-1.88377 2.39969,-4.18616 z m 21.88972,65.43616 c -0.0254,-1.24226 -1.34912,-2.77319 -3.91654,-4.52949 -2.91321,-1.99284 -5.06815,-0.75896 -5.06815,2.90193 0,2.15118 0.42847,2.37756 4.5,2.37756 2.475,0 4.49311,-0.3375 4.48469,-0.75 z m -46.69462,-0.34522 c 2.50914,-3.98496 -3.42303,-10.69917 -6.90199,-7.81189 -2.1944,1.82119 -1.70547,6.5709 0.86192,8.37316 2.63553,1.85008 4.63898,1.66391 6.04007,-0.56127 z M 215,513.70745 c -3.35386,-1.83442 -4.5,-4.02822 -4.5,-8.61332 0,-3.53742 0.57891,-4.96471 2.99276,-7.37856 2.0425,-2.0425 3.59296,-2.80226 4.88303,-2.39281 1.52507,0.48403 2.01022,-0.0338 2.51112,-2.68032 1.6079,-8.49545 7.85823,-19.67933 17.36309,-31.06828 4.83244,-5.79033 5.16248,-8.04775 2.04708,-14.00182 -4.72855,-9.03711 -5.17901,-30.70139 -0.83607,-40.21016 1.95436,-4.27903 6.31037,-9.5 7.92614,-9.5 8.7896,0 14.24286,14.81217 11.12849,30.2272 -2.24331,11.10358 -6.93831,23.57176 -9.26564,24.60613 -1.39051,0.61801 -0.764,4.20462 1.56338,8.94991 3.2186,6.56243 9.31765,22.61385 11.12469,29.27787 1.29669,4.78193 2.17728,6.03604 6.28495,8.95079 2.62734,1.86432 6.75315,5.314 9.16847,7.66595 6.44397,6.27489 5.09493,7.32215 -9.43215,7.32215 -6.21267,0 -12.00757,-0.27314 -12.87755,-0.60699 -2.37712,-0.91218 -1.91656,-4.12775 1.35208,-9.43997 2.83896,-4.61388 2.89136,-4.92482 1.61968,-9.61059 -0.7228,-2.66335 -2.05689,-6.86745 -2.96463,-9.34245 -0.90775,-2.475 -2.73054,-7.72477 -4.05065,-11.66616 -1.32011,-3.94139 -3.16147,-8.63829 -4.09191,-10.43757 l -1.69171,-3.27141 -2.92358,3.43757 c -1.60796,1.89066 -4.0981,5.22755 -5.53363,7.41531 -1.43553,2.18775 -3.1657,4.53338 -3.84482,5.2125 -1.68402,1.68401 -7.45262,15.70515 -7.45262,18.11429 0,1.06896 1.14284,3.98833 2.53964,6.48748 2.96107,5.29793 2.59051,8.67386 -1.28688,11.72381 -2.77614,2.18371 -8.53384,2.59006 -11.75276,0.82945 z"
       inkscape:connector-curvature="0" />
    <path
       id="path3679"
       style="fill:#000000"
       d="m 187.40216,457.46633 c 3.40882,-3.62853 2.54714,-7.603 -2.19063,-10.10415 l -3.78847,-2 -1.93929,2.5 c -2.55723,3.29659 -2.48762,6.83477 0.19054,9.68555 2.77156,2.95019 4.90089,2.92776 7.72785,-0.0814 z M 180,463.90815 c -8.3076,-3.43625 -9.5266,-16.70631 -1.98838,-21.64554 2.08802,-1.36813 2.86416,-1.36632 7.52406,0.0175 6.46644,1.92033 8.96432,4.64681 8.96432,9.78472 0,9.23308 -6.99591,14.9472 -14.5,11.8433 z m -35.65619,48.43053 c -5.3371,-1.46177 -16.55157,-8.98038 -17.40488,-11.6689 -0.31554,-0.99418 -0.97441,-1.8076 -1.46416,-1.8076 -1.48093,0 -6.05709,-8.62897 -7.54972,-14.23601 -1.84811,-6.94239 -1.8169,-22.08148 0.0585,-28.39678 2.3311,-7.84966 8.49975,-15.68357 14.32194,-18.1882 7.27329,-3.12889 12.14127,-3.62296 18.31831,-1.85919 12.86491,3.67339 19.74384,2.86415 23.42622,-2.75588 2.14625,-3.27559 1.50559,-10.72549 -1.1818,-13.74254 -4.02494,-4.51866 -7.5148,-5.10212 -22.41216,-3.74702 -13.51452,1.22931 -13.73899,1.2164 -16.80412,-0.96616 -1.97371,-1.40541 -3.74752,-4.01657 -4.86403,-7.16017 -1.62013,-4.5617 -2.01231,-4.94805 -5.02263,-4.94805 -2.80398,0 -3.26528,-0.34826 -3.26528,-2.46512 l 0,-2.46512 9.49298,0.40176 c 9.99229,0.4229 11.50702,0.81524 11.50702,2.98051 0,1.75901 -2.58855,2.68934 -5.47037,1.96605 -1.27129,-0.31907 -2.62607,-0.0711 -3.01062,0.55116 -0.93369,1.51074 2.04911,7.65105 4.09873,8.43757 0.89494,0.34342 6.63456,0.12272 12.75471,-0.49044 12.74357,-1.27675 17.9906,-0.81475 22.76947,2.00486 5.07642,2.99516 7.29635,7.46561 7.32976,14.76055 0.0251,5.48512 -0.30018,6.52494 -2.88663,9.22688 -5.20736,5.43989 -13.6367,6.67764 -24.29248,3.56708 -6.79111,-1.98241 -14.28535,-1.53623 -18.92356,1.12664 -3.96833,2.27829 -9.02838,9.64803 -10.98139,15.99389 -2.21984,7.21286 -1.88748,20.99272 0.67128,27.83162 2.86449,7.65603 10.80268,16.83454 17.69663,20.46168 3.95209,2.07934 14.4737,2.5632 17.79967,0.81857 5.62677,-2.9515 10.0697,-8.05606 12.36404,-14.20526 2.20015,-5.89673 2.20805,-6.08407 0.472,-11.19146 -1.41578,-4.16515 -1.53713,-5.69582 -0.61244,-7.72529 2.18945,-4.80532 10.48089,-4.17181 13.91078,1.06286 2.28372,3.4854 0.95412,9.0746 -2.65093,11.14361 -2.64629,1.51877 -3.55657,3.01686 -7.41747,12.2074 -1.83111,4.35879 -7.78973,10.12193 -13.33134,12.89398 -4.72107,2.36159 -10.27354,2.54699 -17.44603,0.58252 z"
       inkscape:connector-curvature="0" />
    <path
       id="path3671"
       style="fill:#000000"
       d="m 216.15561,278.31129 c 1.83941,-1.40299 3.34439,-2.91819 3.34439,-3.36712 0,-0.77942 -7.39201,-6.08199 -8.47856,-6.08199 -0.76996,0 -0.63473,10.55338 0.14523,11.33333 1.00971,1.00972 1.37632,0.87125 4.98894,-1.88422 z M 239.3,368.66218 c 1.57027,-1.57027 1.5399,-4.75806 -0.05,-5.24786 -5.56447,-1.71427 -6.78187,-1.57629 -7.90847,0.89632 -0.87214,1.91414 -0.84108,2.84715 0.13389,4.02193 1.51283,1.82285 6.13657,2.01762 7.82458,0.32961 z m -8.42087,5.51119 c -1.16648,-0.22905 -2.94051,-1.93843 -3.94229,-3.79862 -2.63391,-4.89087 -1.15884,-10.40234 3.39228,-12.67502 4.36746,-2.18097 4.37211,-2.18759 3.6268,-5.15715 -0.47647,-1.89843 -1.76876,-2.93972 -5.02543,-4.04938 -4.77403,-1.62668 -10.99352,-5.94602 -12.43199,-8.63382 -3.08631,-5.76682 -2.89031,-19.84932 0.3767,-27.06687 3.87951,-8.57067 14.28199,-23.98712 19.24345,-28.51872 4.09964,-3.74445 4.28532,-5.37168 0.63135,-5.53308 -11.2555,-0.49715 -11.70391,-0.4027 -18.51701,3.90016 -3.67618,2.32172 -7.29777,4.22131 -8.04796,4.22131 -2.58948,0 -4.02342,-5.20772 -3.83274,-13.91957 0.26139,-11.94298 2.26429,-13.71387 8.57693,-7.58346 7.65245,7.43154 10.41572,8.50303 21.92846,8.50303 14.50004,0 15.10846,0.92336 6.4609,9.80528 -17.62816,18.10593 -26.28205,34.94994 -24.40092,47.49419 0.76398,5.09458 5.06475,11.14113 8.64393,12.15269 1.06612,0.30131 2.83925,0.80343 3.94028,1.11582 1.83151,0.51965 1.99264,0.1154 1.89326,-4.75 -0.15565,-7.62115 -0.10266,-7.81798 2.10487,-7.81798 1.77893,0 2,0.66667 2,6.03138 0,7.4104 1.43276,8.32672 6.99384,4.47289 8.57675,-5.94369 11.31852,-17.86273 6.32363,-27.49016 -2.18492,-4.21133 -2.42679,-5.32851 -1.30388,-6.02251 6.70479,-4.14379 11.59801,17.47937 6.25137,27.62487 -3.6715,6.96684 -7.07886,10.26922 -12.09901,11.72625 -4.16679,1.20935 -4.69969,1.69431 -4.98135,4.53318 -0.25707,2.59101 0.34401,3.76276 3.25,6.33553 3.57125,3.16175 4.57485,6.99441 2.94422,11.24377 -1.32619,3.45598 -7.44868,5.14232 -13.99969,3.85599 z"
       inkscape:connector-curvature="0" />
    <path
       id="path3665"
       style="fill:#000000"
       d="m 143.06904,366.61218 c -6.30224,-4.17317 -8.42815,-7.14134 -9.90755,-13.8328 -1.05313,-4.76343 -1.51982,-5.45466 -3.86697,-5.72758 -3.58836,-0.41725 -5.86198,3.16937 -6.19597,9.77414 -0.3057,6.04516 -1.60867,7.88327 -3.9374,5.55453 -1.60207,-1.60207 -1.48254,-6.65835 0.31956,-13.51829 0.81866,-3.11635 6.40535,-7 10.0696,-7 l 2.75454,0 0.19552,-10.75 c 0.27038,-14.86606 1.12281,-20.65516 3.097,-21.03252 1.09205,-0.20875 2.13864,1.11197 3.30842,4.17501 3.2991,8.63857 11.64355,13.67258 20.32784,12.26331 4.92691,-0.79953 12.277,-5.50982 14.47777,-9.27806 4.0006,-6.84997 2.67106,-19.90985 -2.7505,-27.01789 -7.43104,-9.7426 -20.94573,-8.48722 -30.87933,2.86838 -6.07215,6.94138 -7.58157,6.21879 -7.58157,-3.62946 0,-6.52043 -0.24636,-7.54219 -1.94885,-8.08253 -1.07186,-0.3402 -2.16327,-1.38303 -2.42534,-2.31739 -1.46146,-5.21055 -1.42127,-7.96879 0.16319,-11.19885 1.34985,-2.75179 2.3974,-3.56597 4.90026,-3.80861 3.80323,-0.3687 8.81552,2.01477 10.3785,4.93523 1.45161,2.71235 -0.58554,10.54493 -3.09139,11.88603 -1.97324,1.05604 -3.25611,3.7257 -2.4315,5.05994 0.30324,0.49066 2.2172,-0.20744 4.25324,-1.55135 4.89961,-3.23402 11.60158,-5.5264 16.07762,-5.49928 6.93774,0.042 16.0219,6.01183 19.5603,12.85433 2.24065,4.33294 3.41505,13.16003 2.56056,19.24586 -0.86235,6.14186 -2.06926,8.95052 -5.18498,12.06624 -2.81201,2.81201 -12.13382,7.59383 -16.34296,8.38347 -4.26604,0.80031 -12.62163,-1.73114 -17.22782,-5.21944 -4.25123,-3.21948 -4.46215,-2.6269 -4.61843,12.9753 -0.10014,9.99821 0.21965,12.98036 1.75866,16.40014 2.1379,4.75055 7.27759,8.61757 12.83313,9.65545 8.70984,1.62716 18.49334,-8.22344 19.74785,-19.88331 0.44694,-4.15401 0.87635,-5 2.53796,-5 1.68413,0 1.98346,0.63175 1.89524,4 -0.24786,9.46446 -4.00517,16.75381 -11.39524,22.10733 -3.84882,2.78816 -5.36989,3.2695 -10.51144,3.32628 -5.16975,0.0571 -6.69863,-0.38865 -10.91952,-3.18361 z"
       inkscape:connector-curvature="0" />
    <path
       id="path3663"
       style="fill:#000000"
       d="m 23.832819,360.28711 c -1.103753,-2.87633 1.805253,-10.57881 11.490624,-30.42493 2.013097,-4.125 5.013862,-9.77342 6.668367,-12.55204 1.654504,-2.77862 5.255114,-9.41612 8.001356,-14.75 4.717733,-9.163 6.906487,-11.42601 8.083781,-8.35804 0.505386,1.31702 -2.132547,6.79752 -10.425657,21.66008 -8.657904,15.51632 -19.634863,38.84976 -18.711045,39.77358 0.256574,0.25657 1.982662,0.18206 3.835751,-0.16558 2.558529,-0.47998 3.893182,-1.56428 5.546628,-4.50619 1.197557,-2.13077 2.177376,-4.33506 2.177376,-4.89843 0,-0.56337 1.808194,-4.21526 4.018209,-8.11531 2.210014,-3.90004 6.094379,-11.17724 8.631921,-16.17154 4.533876,-8.92341 6.544514,-11.12189 8.439016,-9.22738 0.912971,0.91297 -5.674411,14.84361 -11.348694,23.99961 -2.558626,4.12859 -6.069189,11.48748 -7.16231,15.01374 l -0.682762,2.20249 19.308836,0.0475 c 10.619864,0.0261 20.877924,0.4975 22.795704,1.04751 6.88871,1.97565 7.26236,0.94025 3.01699,-8.36033 -1.03928,-2.27683 -3.09057,-7.06467 -4.55843,-10.63967 -1.46786,-3.575 -4.58688,-10.55 -6.93117,-15.5 -2.34429,-4.95 -5.53098,-11.7 -7.08155,-15 -2.901299,-6.17471 -9.11723,-16.17709 -14.110953,-22.70668 -3.163404,-4.13634 -10.53817,-9.79332 -12.767131,-9.79332 -1.952196,0 -3.257846,2.26994 -1.619727,2.81598 5.287895,1.76263 6.682706,9.46054 2.76975,15.28614 -2.857127,4.25368 -6.658265,4.95142 -9.625179,1.76681 -4.299277,-4.61473 -1.799275,-18.15921 4.116598,-22.30285 3.275787,-2.29445 6.161752,-1.9347 11.670328,1.45476 4.589909,2.8242 8.149099,6.88048 15.850769,18.06455 3.136745,4.55506 20.292565,39.13873 21.780255,43.90586 0.42759,1.37019 2.0005,5.19519 3.49534,8.5 8.48227,18.75273 8.63835,21.18401 1.16806,18.19499 -9.90527,-3.9633 -53.509454,-4.01797 -63.045994,-0.079 -4.172255,1.72329 -4.062223,1.72747 -4.795057,-0.18226 z"
       inkscape:connector-curvature="0" />
    <path
       id="path3655"
       style="fill:#000000"
       d="m 352.5,347.86218 c 2.42186,-2.42186 2.49183,-3.34693 0.38538,-5.09512 -1.38422,-1.1488 -1.88364,-1.00777 -3.5,0.98834 -1.9512,2.40963 -2.37179,4.28704 -1.21871,5.44011 1.11053,1.11053 2.23566,0.76434 4.33333,-1.33333 z m -7.96932,3.80256 c -2.49529,-2.67838 -1.90346,-8.07388 1.26718,-11.55256 3.07241,-3.37089 9.86735,-3.173 12.17878,0.35469 2.13236,3.25439 1.33581,8.56049 -1.71126,11.39926 -2.98816,2.7839 -9.0504,2.67986 -11.7347,-0.20139 z M 291.47976,280.2536 c 2.21113,-0.88472 4.02024,-2.00057 4.02024,-2.47968 0,-0.93922 -7.24681,-4.91174 -8.96016,-4.91174 -1.12915,0 -1.41296,4.86408 -0.43285,7.41821 0.74101,1.93105 0.47634,1.93237 5.37277,-0.0268 z m 31.52939,83.86908 c -3.35248,-0.49301 -8.73486,-5.83996 -8.28072,-8.22621 0.51125,-2.68634 4.61676,-2.46817 5.8838,0.31267 1.58873,3.48689 8.88777,5.25506 8.88777,2.15304 0,-0.825 0.40598,-1.5 0.90217,-1.5 2.85878,0 4.44174,-17.54706 1.67862,-18.60737 -0.78057,-0.29953 -2.46807,0.12855 -3.75,0.9513 -3.93581,2.526 -17.42713,3.61577 -24.88336,2.00997 -6.57545,-1.41611 -13.2706,-1.11741 -18.19743,0.81188 -1.5125,0.59227 -2.75,1.47227 -2.75,1.95554 0,1.53059 -5.03639,0.94742 -5.65104,-0.65434 -0.48944,-1.27545 4.16619,-9.56084 7.81093,-13.90072 0.49251,-0.58644 2.83157,-3.60946 5.19792,-6.71781 2.36634,-3.10835 5.05388,-6.403 5.97231,-7.32143 0.91844,-0.91843 1.66988,-2.12603 1.66988,-2.68356 0,-0.55752 2.8125,-4.2227 6.25,-8.14484 3.4375,-3.92214 6.7,-7.71601 7.25,-8.43083 0.55,-0.71482 3.58448,-3.88 6.74328,-7.03373 5.19084,-5.1825 7.04277,-8.22923 5.00672,-8.23688 -0.4125,-10e-4 -4.66967,-0.48355 -9.46037,-1.07113 l -8.71038,-1.06831 -6.0932,3.57113 c -3.35126,1.96412 -6.53493,3.57113 -7.07481,3.57113 -0.53988,0 -2.0606,0.70698 -3.37937,1.57107 -1.86141,1.21965 -2.86012,1.32362 -4.46481,0.46482 -1.86395,-0.99756 -2.06706,-2.02825 -2.06706,-10.48929 0,-9.41783 0.50779,-12.5466 2.03627,-12.5466 0.45227,0 3.44162,1.73965 6.64302,3.86588 7.7176,5.12572 9.04906,5.4127 31.06189,6.6949 8.39893,0.48923 12.59715,1.14196 13.3753,2.07957 0.90265,1.08762 -1.61184,4.0703 -12.31925,14.6131 -7.39937,7.2856 -15.44325,15.94375 -17.87531,19.24032 -2.43206,3.29658 -7.46401,9.74462 -11.18213,14.32897 -3.71812,4.58436 -6.54307,8.68654 -6.27768,9.11595 0.59505,0.96282 16.2431,2.37224 27.03789,2.4353 11.48977,0.0671 18.66672,-3.95757 20.13327,-11.29035 l 0.65703,-3.28512 -3.09549,1.60074 c -4.11467,2.12778 -6.36975,2.01805 -9.00625,-0.43822 -2.66616,-2.48391 -2.96768,-8.84232 -0.59128,-12.46916 3.65582,-5.5795 13.41974,-3.19047 16.89541,4.13395 1.52825,3.22056 1.5504,4.31639 0.24669,12.20619 -0.78777,4.76739 -1.22793,11.88939 -0.97815,15.82667 0.51003,8.03958 -0.76476,13.12885 -4.53163,18.09131 -2.51681,3.31565 -3.56936,3.56214 -10.72045,2.5105 z"
       inkscape:connector-curvature="0" />
    <path
       id="path3653"
       style="fill:#000000"
       d="m 389.82254,332.26286 c -3.79166,-1.88568 -4.57179,-3.55513 -3.73806,-7.99929 0.71113,-3.79067 1.75314,-4.84771 5.71178,-5.79417 2.27365,-0.5436 3.36133,-0.10348 5.81969,2.35488 3.28707,3.28707 3.27594,5.34358 -0.0543,10.0379 -2.21685,3.12485 -3.72377,3.39759 -7.73907,1.40068 z m -0.0554,-44.15068 c 3.87507,-4.29996 2.92579,-10.46577 -1.89338,-12.29801 -3.34139,-1.2704 -5.8779,0.18695 -7.26854,4.17612 -1.53448,4.40182 -1.401,5.57607 0.89482,7.87189 2.46656,2.46656 6.16867,2.57852 8.2671,0.25 z m 23.47486,69.20088 c -5.65573,-1.80213 -9.2088,-6.58576 -10.49056,-14.12384 -0.8791,-5.16999 0.46909,-14.58828 2.83816,-19.82704 3.83834,-8.48781 11.3728,-19.61692 16.84951,-24.8883 3.36472,-3.23857 5.85398,-6.15199 5.53169,-6.47427 -0.32228,-0.32228 -4.06258,-0.68146 -8.31177,-0.79817 -4.24919,-0.11671 -11.07127,-1.13928 -15.16017,-2.27237 l -7.43436,-2.06017 -3.39627,3.49664 c -4.00914,4.12761 -8.75071,4.65834 -13.84834,1.55008 -4.89354,-2.98382 -5.69858,-11.45125 -1.69267,-17.80344 1.18584,-1.8804 2.30601,-2.25 6.81915,-2.25 4.35073,0 5.99816,0.50313 8.47694,2.58889 1.7861,1.50291 3.07673,3.54942 3.07673,4.87868 0,2.56977 1.96065,3.61147 11.5,6.11002 7.70587,2.01833 22.79343,2.00591 28.6211,-0.0236 6.59205,-2.29565 9.8789,-2.06352 9.8789,0.69768 0,1.67335 -1.22007,2.88538 -4.75,4.71871 -7.35234,3.81857 -16.4967,10.87883 -21.40887,16.52957 -5.21235,5.99605 -11.53291,19.09664 -12.96608,26.87473 -1.15001,6.24134 -1.08363,6.90987 1.16234,11.7051 2.65956,5.67827 5.90874,7.92017 11.47869,7.92017 5.06234,0 6.82348,-1.20821 10.54466,-7.23401 2.57513,-4.16999 3.23068,-6.27779 3.14976,-10.12742 -0.0627,-2.98175 -0.73701,-5.56287 -1.744,-6.67559 -2.17144,-2.39941 -1.51337,-5.56364 1.06975,-5.14383 2.53738,0.41239 4.25839,2.70447 5.50402,7.33041 1.80595,6.70677 -1.86688,17.51001 -7.90194,23.24274 -3.72665,3.53996 -10.30443,4.31834 -17.39637,2.05858 z"
       inkscape:connector-curvature="0" />
    <path
       id="path3647"
       style="fill:#000000"
       d="m 529.11812,290.24758 c 0.66141,-2.63528 0.011,-3.97832 -2.60437,-5.37804 -3.68626,-1.97283 -7.04847,5.55792 -3.89108,8.71531 1.63061,1.63061 5.7842,-0.50345 6.49545,-3.33727 z m -10.07765,5.87482 c -4.13488,-4.45928 -2.85442,-12.46212 2.50002,-15.62507 3.53193,-2.08636 6.29519,-1.50058 10.20951,2.16429 4.42212,4.1403 3.34031,12.69931 -1.90732,15.09029 -4.2085,1.91752 -8.05064,1.33793 -10.80221,-1.62951 z m -26.48313,69.90645 C 491.9758,365.84551 491.5,364.86018 491.5,363.83921 c 0,-1.42321 0.87489,-1.92871 3.75,-2.16666 l 3.75,-0.31037 0.20458,-15.40458 c 0.11252,-8.47252 0.62972,-15.82972 1.14934,-16.34934 1.4317,-1.4317 4.66734,-0.009 6.10987,2.68626 2.5246,4.71726 8.52699,4.73543 13.36127,0.0404 4.16362,-4.04366 5.60634,-8.33717 4.62081,-13.75146 -1.36183,-7.48161 -6.83335,-10.79981 -13.56751,-8.22801 -3.34252,1.27651 -4.52299,2.41088 -5.78116,5.55537 -0.86955,2.17323 -1.94465,3.95132 -2.3891,3.95132 -2.35034,0 -2.97666,-2.61739 -2.45334,-10.25252 0.34938,-5.09738 0.19542,-7.83472 -0.41931,-7.4548 -0.53429,0.33021 -2.69934,4.56194 -4.81123,9.40385 -2.11189,4.84191 -6.69379,13.1169 -10.18201,18.38887 -3.48822,5.27197 -6.34221,9.90605 -6.34221,10.29797 0,0.39191 1.22288,1.76444 2.7175,3.05006 2.31911,1.99481 2.52427,2.57033 1.39941,3.9257 -1.19029,1.43421 -1.605,1.43983 -4.27723,0.058 -4.2371,-2.19109 -10.83968,-8.38228 -10.83968,-10.16429 0,-1.17701 0.7927,-1.38585 3.55735,-0.93721 3.5291,0.5727 3.59959,0.51222 8.87955,-7.61915 6.40964,-9.87112 11.12339,-19.12824 16.17249,-31.76046 3.04949,-7.62943 3.85172,-11.06334 4.1902,-17.93598 0.41504,-8.42696 1.21389,-10.31579 3.92322,-9.27613 1.1645,0.44686 1.30656,3.69288 0.83228,19.0177 -0.53737,17.36316 -0.46573,18.43547 1.18651,17.76019 7.69598,-3.14537 11.71264,-2.90256 16.86767,1.01965 4.21017,3.20331 6.6687,8.73847 6.53414,14.71102 -0.14209,6.3068 -2.43236,11.03635 -7.15598,14.77753 -3.39055,2.68536 -4.49933,2.99004 -10.88133,2.99004 l -7.1061,0 0.0153,9.75 c 0.0174,11.0588 0.64268,12.80364 4.26293,11.89501 2.88772,-0.72477 5.28526,1.44416 4.33467,3.92134 -0.51192,1.33405 -2.14015,1.53853 -10.05453,1.26274 -5.19403,-0.181 -9.9195,-0.47909 -10.50104,-0.66242 z"
       inkscape:connector-curvature="0" />
  </g>
</svg>
